<svg width="269" height="60" viewBox="0 0 269 60" fill="none" xmlns="http://www.w3.org/2000/svg">
<g clip-path="url(#clip0_301_90)">
<rect width="268.696" height="60" fill="white"/>
<path fill-rule="evenodd" clip-rule="evenodd" d="M101.326 27.2678V7.13509H105.728C114.822 7.13509 118.647 11.5526 118.647 16.9116C118.647 24.2261 112.656 27.2678 105.223 27.2678H101.326ZM101.326 29.4404H108.182C114.966 37.5514 123.914 53.8459 133.008 53.8459C136.472 53.8459 137.987 52.3973 137.987 51.8185C137.987 51.5287 137.699 51.3838 137.41 51.3838C136.616 51.6735 135.894 51.6735 134.956 51.6735C129.616 51.6735 122.327 42.4037 112.584 28.5712C118.43 27.1953 122.976 23.6467 122.976 16.4771C122.976 7.42481 114.1 4.9622 104.935 4.9622H94.687C96.7799 7.93159 96.9962 7.64187 96.9962 13.0734V45.7347C96.9962 51.1664 96.7799 50.877 94.687 53.8459H103.636C101.543 50.877 101.326 51.1664 101.326 45.7347V29.4404Z" fill="black"/>
<path d="M171.862 44.1417C169.841 45.9523 167.098 51.6735 155.913 51.6735C148.913 51.6735 148.407 49.2835 148.407 43.7796V27.7748H160.315C163.923 27.7748 164.067 28.2092 166.016 29.9473V23.4295C164.067 25.24 163.346 25.6022 160.532 25.6022H148.407V7.13509H156.201C164.067 7.13509 164.356 8.22131 166.449 11.7697V4.9622H140.541C144.077 7.27995 144.077 9.45238 144.077 13.0734V45.7347C144.077 49.4285 144.077 51.4561 140.541 53.8459H168.398L171.862 44.1417Z" fill="black"/>
<path d="M219.296 45.5901C217.204 47.9799 213.667 52.7597 204.647 52.7597C191.584 52.7597 182.058 42.4037 182.058 29.1507C182.058 15.6807 191.007 6.77273 203.709 6.77273C214.029 6.77273 217.276 12.2043 218.864 14.3045V5.90403C217.492 5.54166 210.131 3.876 205.224 3.876C192.45 3.876 177.151 12.2769 177.151 29.9474C177.151 45.2279 190.502 54.9323 202.842 54.9323C211.07 54.9323 213.379 53.7738 218.431 52.1803L219.296 45.5901Z" fill="black"/>
<path fill-rule="evenodd" clip-rule="evenodd" d="M252.097 30.0198H237.231L244.808 11.8423L252.097 30.0198ZM245.891 3.87598L227.849 46.5317C225.972 50.9493 225.756 51.3111 222.365 53.8459H230.519C229.581 53.1217 228.859 52.9046 228.859 51.1664C228.859 50.3699 229.364 48.7041 229.869 47.5452L236.292 32.1924H252.891L259.386 48.5594C259.675 49.2835 259.963 50.0079 259.963 50.7317C259.963 52.3973 259.169 52.9768 258.448 53.8459H268.696C266.386 52.6149 265.665 52.832 263.499 47.3282L245.891 3.87598Z" fill="black"/>
<path d="M16.743 7.13509C24.6812 7.13509 24.9699 8.22131 27.0629 11.7697V4.9622H0C3.53624 7.27995 3.53624 9.45238 3.53624 13.0734V45.7347C3.53624 51.1664 3.31957 50.877 1.22665 53.8459H10.1756C8.083 50.877 7.86615 51.1664 7.86615 45.7347V28.7886H20.7122C24.3203 28.7886 24.4649 29.2231 26.4134 30.9612V24.4433C24.4649 26.2539 23.7433 26.6161 20.9285 26.6161H7.86615V7.13509H16.743Z" fill="black"/>
<path d="M41.5201 10.7483C40.3855 8.9095 40.794 6.55337 42.4817 5.41141C44.1242 4.2996 46.3818 4.74103 47.6764 6.37286C50.1646 5.10158 52.884 4.22054 55.7552 3.80973C55.8749 1.68482 57.5111 0.00181007 59.5224 0.00181007C61.5406 0.00181007 63.1895 1.69534 63.3006 3.82938C66.1125 4.24659 68.7774 5.11483 71.2209 6.35916C72.5337 4.69122 74.8338 4.25573 76.48 5.41277C78.1343 6.57484 78.5164 8.91453 77.3839 10.7273C79.132 12.3943 80.6493 14.3022 81.8834 16.3978C83.8811 15.6738 86.0687 16.5273 86.856 18.3876C87.6556 20.2789 86.7076 22.5009 84.7358 23.4137C85.2258 25.416 85.4854 27.5089 85.4854 29.6628H81.4685C81.4685 17.4656 71.6157 7.57835 59.4614 7.57835C47.3067 7.57835 37.461 17.4656 37.461 29.6628H33.4443C33.4443 27.5136 33.7026 25.4251 34.1902 23.4269C32.2339 22.5355 31.2655 20.3587 32.0265 18.4686C32.7897 16.5726 35.0084 15.6736 37.0384 16.4084C38.2673 14.3172 39.7792 12.4131 41.5201 10.7483Z" fill="black"/>
<path d="M36.0528 41.0879C34.7395 40.5544 31.5046 39.2408 30.8022 38.9589C30.4852 38.8318 30.2922 38.329 30.6202 37.9675L33.8599 34.378C33.5819 32.8485 33.4369 31.2727 33.4369 29.6628H37.4537C37.4537 41.8599 47.3065 51.747 59.4612 51.747C71.6155 51.747 81.4756 41.8599 81.4756 29.6628H85.4925C85.4925 31.2634 85.349 32.8305 85.074 34.3517C85.9569 35.6671 87.6382 38.1713 88.0298 38.749C88.222 39.0322 88.1013 39.5574 87.6281 39.6731L83.0057 40.815C81.7306 43.5198 80.0057 45.9696 77.9279 48.0676C77.9265 49.6469 77.9256 52.6944 77.9283 53.3962C77.9297 53.739 77.5371 54.1069 77.08 53.9369L72.5226 52.2571C69.6078 53.9566 66.335 55.1049 62.8451 55.5595C61.917 56.8879 60.2937 59.2122 59.9107 59.766C59.7158 60.0475 59.1839 60.123 58.9066 59.7208L56.0159 55.5513C52.5733 55.0943 49.3429 53.9625 46.4613 52.2918C44.9259 52.8209 42.2928 53.7299 41.6638 53.9498C41.3411 54.0626 40.8669 53.8104 40.8783 53.3215L40.9854 48.0549C38.9842 46.0305 37.3111 43.6792 36.0528 41.0879Z" fill="black"/>
</g>
<defs>
<clipPath id="clip0_301_90">
<rect width="268.696" height="60" fill="white"/>
</clipPath>
</defs>
</svg>
