<svg width="40" height="40" viewBox="0 0 40 40" fill="none" xmlns="http://www.w3.org/2000/svg">
<path d="M14.668 27.8516C14.668 27.7344 14.5508 27.6172 14.375 27.6172C14.1992 27.6172 14.082 27.7344 14.082 27.8516C14.082 27.9688 14.1992 28.0859 14.375 28.0273C14.5508 28.0273 14.668 27.9688 14.668 27.8516ZM12.8516 27.5586C12.8516 27.6758 12.9688 27.8516 13.1445 27.8516C13.2617 27.9102 13.4375 27.8516 13.4961 27.7344C13.4961 27.6172 13.4375 27.5 13.2617 27.4414C13.0859 27.3828 12.9102 27.4414 12.8516 27.5586ZM15.4883 27.5C15.3125 27.5 15.1953 27.6172 15.1953 27.793C15.1953 27.9102 15.3711 27.9688 15.5469 27.9102C15.7227 27.8516 15.8398 27.793 15.7812 27.6758C15.7812 27.5586 15.6055 27.4414 15.4883 27.5ZM19.2969 5C11.2109 5 5 11.2109 5 19.2969C5 25.8008 9.04297 31.3672 14.9023 33.3594C15.6641 33.4766 15.8984 33.0078 15.8984 32.6562C15.8984 32.2461 15.8984 30.2539 15.8984 29.0234C15.8984 29.0234 11.7969 29.9023 10.918 27.2656C10.918 27.2656 10.2734 25.5664 9.33594 25.1562C9.33594 25.1562 7.98828 24.2188 9.39453 24.2188C9.39453 24.2188 10.8594 24.3359 11.6797 25.7422C12.9688 28.0273 15.0781 27.3828 15.957 26.9727C16.0742 26.0352 16.4258 25.3906 16.8945 24.9805C13.6133 24.6289 10.2734 24.1602 10.2734 18.5352C10.2734 16.8945 10.7422 16.1328 11.6797 15.0781C11.5039 14.668 11.0352 13.1445 11.8555 11.0938C13.0273 10.7422 15.8984 12.6758 15.8984 12.6758C17.0703 12.3242 18.3008 12.207 19.5312 12.207C20.8203 12.207 22.0508 12.3242 23.2227 12.6758C23.2227 12.6758 26.0352 10.6836 27.2656 11.0938C28.0859 13.1445 27.5586 14.668 27.4414 15.0781C28.3789 16.1328 28.9648 16.8945 28.9648 18.5352C28.9648 24.1602 25.5078 24.6289 22.2266 24.9805C22.7539 25.4492 23.2227 26.3281 23.2227 27.7344C23.2227 29.668 23.1641 32.1289 23.1641 32.5977C23.1641 33.0078 23.457 33.4766 24.2188 33.3008C30.0781 31.3672 34.0625 25.8008 34.0625 19.2969C34.0625 11.2109 27.4414 5 19.2969 5ZM10.6836 25.2148C10.5664 25.2734 10.625 25.4492 10.6836 25.5664C10.8008 25.625 10.918 25.6836 11.0352 25.625C11.0938 25.5664 11.0938 25.3906 10.9766 25.2734C10.8594 25.2148 10.7422 25.1562 10.6836 25.2148ZM10.0391 24.7461C9.98047 24.8633 10.0391 24.9219 10.1562 24.9805C10.2734 25.0391 10.3906 25.0391 10.4492 24.9219C10.4492 24.8633 10.3906 24.8047 10.2734 24.7461C10.1562 24.6875 10.0977 24.6875 10.0391 24.7461ZM11.9141 26.8555C11.8555 26.9141 11.8555 27.0898 12.0312 27.207C12.1484 27.3242 12.3242 27.3828 12.3828 27.2656C12.4414 27.207 12.4414 27.0312 12.3242 26.9141C12.207 26.7969 12.0312 26.7383 11.9141 26.8555ZM11.2695 25.9766C11.1523 26.0352 11.1523 26.2109 11.2695 26.3281C11.3867 26.4453 11.5039 26.5039 11.6211 26.4453C11.6797 26.3867 11.6797 26.2109 11.6211 26.0938C11.5039 25.9766 11.3867 25.918 11.2695 25.9766Z" fill="#0C0C0C"/>
</svg>
