<svg width="218" height="60" viewBox="0 0 218 60" fill="none" xmlns="http://www.w3.org/2000/svg">
<g clip-path="url(#clip0_301_88)">
<path d="M17.2094 36.2788L17.0627 36.2029L16.9867 36.1624L16.9071 36.1218C16.73 36.0286 16.5968 35.8694 16.5366 35.6787C16.4764 35.488 16.4939 35.2813 16.5855 35.1035C16.6355 35.006 16.7064 34.9206 16.7933 34.8535C16.8801 34.7864 16.9806 34.7392 17.0877 34.7153C17.1949 34.6914 17.306 34.6913 17.4131 34.7151C17.5203 34.7389 17.6209 34.786 17.7078 34.8529L17.8562 34.9677L17.9199 35.0153L17.9799 35.0647C18.1305 35.1836 18.2282 35.357 18.2516 35.5472C18.2751 35.7375 18.2226 35.9293 18.1054 36.0812C18.0031 36.214 17.8573 36.3066 17.6934 36.3428C17.5295 36.3789 17.3582 36.3563 17.2094 36.2788ZM15.4296 34.2194C15.6416 34.0373 15.7734 33.7792 15.7965 33.5009C15.8197 33.2226 15.7323 32.9463 15.5533 32.7318L15.5056 32.6753L15.4543 32.6153L15.2829 32.4088C15.1809 32.2873 15.0532 32.1899 14.909 32.1234C14.7648 32.057 14.6077 32.0232 14.4489 32.0246C14.2901 32.0259 14.1335 32.0623 13.9905 32.1312C13.8475 32.2001 13.7214 32.2997 13.6215 32.4229C13.439 32.6472 13.3522 32.9342 13.38 33.2219C13.4078 33.5095 13.5479 33.7747 13.77 33.96L13.8389 34.0182L13.9061 34.0747L14.0899 34.2282C14.4752 34.5459 15.039 34.5529 15.4296 34.2194ZM11.285 30.9741L11.3345 31.05L11.3804 31.1224L11.4812 31.2741C11.6563 31.5388 11.9248 31.7281 12.2332 31.8043C12.5417 31.8805 12.8675 31.838 13.1461 31.6853C13.444 31.5213 13.665 31.2465 13.761 30.9206C13.857 30.5948 13.8202 30.2442 13.6586 29.9453L13.6233 29.88L13.5879 29.8112L13.4925 29.6347C13.408 29.4765 13.2912 29.3377 13.1497 29.2274C13.0082 29.117 12.8451 29.0374 12.6709 28.9939C12.4967 28.9503 12.3153 28.9437 12.1384 28.9744C11.9615 29.0052 11.793 29.0726 11.6438 29.1724C11.3584 29.365 11.1606 29.6623 11.0934 29.9996C11.0263 30.337 11.0951 30.6871 11.285 30.9741ZM12.3242 26.7424L12.3013 26.6682L12.2659 26.5571L12.2641 26.5447C12.207 26.3645 12.1146 26.1973 11.9924 26.0529C11.8702 25.9085 11.7206 25.7896 11.5523 25.7031C11.3839 25.6167 11.2 25.5644 11.0113 25.5492C10.8225 25.534 10.6326 25.5563 10.4525 25.6147C10.0886 25.7361 9.78737 25.9961 9.61456 26.3383C9.44176 26.6804 9.41135 27.0768 9.52996 27.4412L9.55647 27.5294L9.58298 27.6106L9.60949 27.6935C9.72408 28.054 9.9769 28.3545 10.3127 28.5294C10.6485 28.7043 11.04 28.7395 11.4016 28.6271C11.7672 28.511 12.0719 28.2554 12.2494 27.9158C12.4269 27.5763 12.4627 27.1805 12.349 26.8147L12.3242 26.7424ZM11.6332 23.3947L11.6243 23.3171L11.612 23.1988L11.6102 23.1865C11.5864 22.9945 11.5249 22.8091 11.4291 22.641C11.3333 22.4729 11.2052 22.3253 11.0522 22.2067C10.8991 22.0881 10.7241 22.001 10.5372 21.9501C10.3502 21.8993 10.1551 21.8859 9.96298 21.9106C9.57504 21.9637 9.22393 22.168 8.98646 22.4789C8.74898 22.7897 8.64446 23.1818 8.69574 23.5694L8.70635 23.6612L8.71872 23.7477L8.73109 23.8359C8.77845 24.2192 8.9755 24.5683 9.27936 24.8072C9.58322 25.0462 9.96929 25.1556 10.3536 25.1118C10.7424 25.0645 11.0967 24.8652 11.3385 24.5575C11.5804 24.2499 11.6902 23.859 11.6438 23.4706L11.6332 23.3947ZM9.95591 21.4465C10.1533 21.4574 10.3508 21.4294 10.5373 21.364C10.7238 21.2985 10.8955 21.197 11.0426 21.0652C11.1897 20.9334 11.3093 20.7739 11.3946 20.5959C11.4799 20.4178 11.5291 20.2247 11.5395 20.0277L11.543 19.9518L11.5466 19.8741L11.5536 19.7541L11.5554 19.74C11.5747 19.3412 11.4348 18.951 11.1664 18.655C10.8981 18.3589 10.5232 18.1811 10.1238 18.1606C9.92594 18.1528 9.72846 18.184 9.54267 18.2524C9.35687 18.3208 9.1864 18.4251 9.04098 18.5593C8.89556 18.6936 8.77805 18.8551 8.69516 19.0346C8.61227 19.2142 8.56563 19.4083 8.55789 19.6059L8.55435 19.6941L8.54905 19.7824L8.54551 19.8706C8.52615 20.2656 8.66324 20.6523 8.92716 20.9472C9.19108 21.2421 9.56062 21.4215 9.95591 21.4465ZM10.3041 17.7671C10.4924 17.8217 10.6897 17.8384 10.8846 17.8165C11.0795 17.7945 11.2681 17.7342 11.4395 17.639C11.6109 17.5438 11.7617 17.4157 11.8832 17.262C12.0047 17.1083 12.0946 16.9321 12.1475 16.7435L12.1775 16.6377L12.2005 16.5653L12.2217 16.4894C12.3342 16.1096 12.291 15.7008 12.1018 15.3527C11.9126 15.0046 11.5928 14.7458 11.2125 14.6329C11.0245 14.5777 10.8274 14.5601 10.6326 14.5812C10.4378 14.6024 10.2491 14.6618 10.0774 14.7562C9.90568 14.8505 9.75438 14.9779 9.63222 15.1309C9.51005 15.2839 9.41943 15.4595 9.36559 15.6477L9.33908 15.7324L9.3161 15.8188L9.29136 15.9035L9.28783 15.9106C9.17858 16.2913 9.22399 16.6997 9.41422 17.0472C9.60445 17.3947 9.92417 17.6533 10.3041 17.7671ZM11.3645 14.2165C11.5399 14.2996 11.7301 14.3471 11.924 14.3563C12.1179 14.3655 12.3117 14.3362 12.4942 14.2701C12.6767 14.2039 12.8442 14.1022 12.9871 13.971C13.1299 13.8397 13.2452 13.6814 13.3264 13.5053L13.3723 13.4082L13.4059 13.3377L13.4253 13.2971C13.5941 12.9426 13.6154 12.5359 13.4846 12.1658C13.3537 11.7957 13.0814 11.4925 12.7272 11.3224C12.5526 11.2388 12.3631 11.1906 12.1697 11.1806C11.9763 11.1705 11.7829 11.1988 11.6005 11.2638C11.4181 11.3287 11.2504 11.4291 11.1071 11.5591C10.9638 11.6891 10.8476 11.8461 10.7654 12.0212L10.7247 12.1059L10.7018 12.1535L10.6664 12.2312L10.6629 12.2382C10.4955 12.5936 10.4751 13.0005 10.6061 13.3708C10.7371 13.7411 11.0107 14.0449 11.3645 14.2165ZM14.9347 10.5777L15.0496 10.41L15.092 10.3447L15.1379 10.2741C15.3265 9.98988 15.4026 9.6459 15.3517 9.30881C15.3008 8.97171 15.1263 8.66548 14.8622 8.44942C14.7239 8.33749 14.5646 8.25416 14.3937 8.20426C14.2227 8.15437 14.0436 8.1389 13.8666 8.15877C13.6896 8.17864 13.5184 8.23345 13.3628 8.32C13.2073 8.40656 13.0705 8.52313 12.9605 8.66295L12.8474 8.80589L12.7908 8.87824L12.7343 8.94883C12.6165 9.09763 12.5306 9.26896 12.4818 9.45224C12.4329 9.63551 12.4223 9.82684 12.4504 10.0144C12.4786 10.2019 12.545 10.3817 12.6455 10.5427C12.746 10.7036 12.8785 10.8422 13.0347 10.95C13.1836 11.0516 13.3511 11.1226 13.5277 11.1589C13.7042 11.1953 13.8863 11.1962 14.0632 11.1617C14.2401 11.1273 14.4084 11.058 14.5584 10.9581C14.7083 10.8581 14.8368 10.7294 14.9365 10.5794L14.9347 10.5777ZM16.9601 7.90942L17.1475 7.69942L17.2005 7.64118L17.2571 7.58118C17.4434 7.37444 17.5512 7.10904 17.5619 6.83113C17.5725 6.55322 17.4853 6.28037 17.3154 6.06001C17.2215 5.93801 17.1042 5.83587 16.9704 5.75952C16.8367 5.68317 16.689 5.63413 16.5361 5.61525C16.3831 5.59636 16.228 5.60802 16.0796 5.64953C15.9312 5.69104 15.7926 5.76159 15.6717 5.85706L15.4685 6.01765L15.396 6.07589L15.3253 6.13059C15.187 6.2404 15.0741 6.37874 14.9943 6.53615C14.9145 6.69357 14.8698 6.86633 14.863 7.04262C14.8563 7.21891 14.8878 7.39457 14.9554 7.55758C15.023 7.72059 15.1251 7.86709 15.2546 7.98706C15.7459 8.43883 16.5095 8.4053 16.9601 7.90942ZM19.4292 5.47059L19.5883 5.33648L19.6519 5.28353L19.7155 5.23059C20.0337 4.96589 20.122 4.50354 19.91 4.13118C19.8544 4.03278 19.7798 3.9464 19.6905 3.87705C19.6012 3.80769 19.4989 3.75676 19.3897 3.7272C19.2805 3.69765 19.1665 3.69006 19.0544 3.70488C18.9422 3.7197 18.8341 3.75663 18.7364 3.81353L18.5685 3.91236L18.489 3.95824L18.413 4.00412C18.3005 4.07047 18.2038 4.16033 18.1294 4.26753C18.055 4.37474 18.0048 4.49675 17.9821 4.62518C17.9595 4.75362 17.9649 4.88543 17.9981 5.01156C18.0313 5.13769 18.0914 5.25516 18.1744 5.35589C18.2486 5.44652 18.3402 5.52148 18.4438 5.57641C18.5474 5.63133 18.6609 5.66512 18.7777 5.67579C18.8945 5.68647 19.0123 5.67383 19.1241 5.63859C19.236 5.60336 19.3397 5.54625 19.4292 5.47059ZM22.805 42.3477L22.8933 42.33L22.9782 42.3124L23.1372 42.2735C23.3017 42.2361 23.4477 42.1424 23.5501 42.0086C23.6525 41.8748 23.7046 41.7094 23.6975 41.5412C23.6945 41.4466 23.6729 41.3536 23.6339 41.2673C23.5949 41.1811 23.5393 41.1034 23.4702 41.0387C23.4011 40.9739 23.3199 40.9234 23.2312 40.8901C23.1425 40.8567 23.0481 40.8411 22.9534 40.8441L22.8774 40.8459L22.7961 40.8494L22.6088 40.8565C22.499 40.8626 22.3919 40.8925 22.2948 40.944C22.1976 40.9956 22.1129 41.0675 22.0464 41.1549C21.9798 41.2423 21.9331 41.3431 21.9093 41.4503C21.8856 41.5575 21.8855 41.6686 21.9089 41.7759C21.93 41.8724 21.97 41.9638 22.0267 42.0449C22.0833 42.1259 22.1554 42.195 22.2388 42.2481C22.3222 42.3012 22.4154 42.3374 22.5128 42.3545C22.6103 42.3715 22.7102 42.3692 22.8067 42.3477H22.805ZM19.0263 42.7271H19.203L19.4416 42.7235C19.6877 42.7195 19.9246 42.6296 20.1112 42.4694C20.2978 42.3092 20.4223 42.0888 20.4632 41.8465C20.511 41.5723 20.4483 41.2904 20.2887 41.0623C20.1291 40.8341 19.8855 40.6783 19.6113 40.6288L19.537 40.6147L19.461 40.6024L19.1959 40.5565C19.039 40.5315 18.8786 40.5411 18.7258 40.5845C18.573 40.628 18.4316 40.7042 18.3114 40.8079C18.1912 40.9116 18.0951 41.0403 18.03 41.1849C17.9648 41.3296 17.932 41.4867 17.934 41.6453C17.9375 42.2488 18.4289 42.7341 19.0263 42.7271ZM15.2157 42.0494L15.3023 42.0741L15.3836 42.1006L15.5568 42.15C15.8622 42.2375 16.1893 42.2078 16.4738 42.0667C16.7583 41.9257 16.9797 41.6834 17.0945 41.3877C17.219 41.0718 17.2137 40.7197 17.0797 40.4077C16.9456 40.0958 16.6937 39.8493 16.3787 39.7218L16.3097 39.6953L16.239 39.6653L16.0517 39.5912C15.8846 39.5257 15.7056 39.4959 15.5263 39.5035C15.347 39.5112 15.1712 39.5562 15.0103 39.6356C14.8494 39.715 14.7069 39.8271 14.5919 39.9647C14.4769 40.1023 14.392 40.2624 14.3426 40.4347C14.2453 40.7644 14.2824 41.1192 14.446 41.4217C14.6095 41.7242 14.8862 41.9498 15.2157 42.0494ZM11.619 40.4788L11.695 40.5282L11.7675 40.5741L11.8417 40.6182C12.162 40.8191 12.549 40.8848 12.9178 40.8011C13.2865 40.7174 13.607 40.4911 13.8089 40.1718C14.0149 39.8488 14.0854 39.4577 14.005 39.0833C13.9246 38.7088 13.6999 38.3809 13.3794 38.1706L13.3158 38.1318L13.2521 38.0894L13.1531 38.0259L13.1443 38.0206C12.9842 37.92 12.8057 37.8522 12.6192 37.8209C12.4326 37.7896 12.2417 37.7956 12.0575 37.8384C11.8733 37.8812 11.6994 37.9601 11.5458 38.0704C11.3923 38.1807 11.2622 38.3204 11.163 38.4812C10.9601 38.807 10.8941 39.1996 10.9795 39.5737C11.0649 39.9477 11.2947 40.273 11.619 40.4788ZM8.51193 38.0559L8.57733 38.1159L8.64095 38.1759L8.70635 38.2341C8.84628 38.3645 9.0106 38.4661 9.18991 38.533C9.36922 38.5998 9.55999 38.6307 9.75127 38.6238C9.94256 38.6169 10.1306 38.5724 10.3046 38.4928C10.4786 38.4132 10.6352 38.3001 10.7654 38.16C11.0328 37.8732 11.1763 37.4929 11.1651 37.1012C11.1539 36.7096 10.9887 36.3381 10.7053 36.0671L10.6523 36.0177L10.5957 35.9647L10.5073 35.88C10.3662 35.7464 10.1997 35.6424 10.0177 35.574C9.83566 35.5056 9.64177 35.4743 9.44744 35.4819C9.2531 35.4894 9.06225 35.5357 8.88611 35.618C8.70997 35.7004 8.5521 35.817 8.42179 35.9612C8.15747 36.2517 8.01851 36.6345 8.03505 37.0267C8.05159 37.4188 8.22408 37.7886 8.51193 38.0559ZM5.87849 35.1088L5.93505 35.1794L5.98807 35.25L6.0411 35.3206C6.15864 35.4762 6.30574 35.6072 6.47399 35.7061C6.64224 35.805 6.82835 35.8698 7.02169 35.8968C7.21503 35.9238 7.41181 35.9126 7.60079 35.8637C7.78978 35.8148 7.96726 35.7292 8.1231 35.6118C8.4422 35.3708 8.65338 35.0139 8.71094 34.6186C8.7685 34.2232 8.66779 33.8212 8.43063 33.4994L8.38645 33.4377L8.33873 33.3759L8.26803 33.2788L8.26096 33.2682C8.14217 33.1108 7.99327 32.9785 7.82289 32.879C7.65251 32.7795 7.46405 32.7147 7.26842 32.6885C7.07278 32.6622 6.87388 32.675 6.68322 32.726C6.49257 32.7771 6.31396 32.8654 6.15774 32.9859C5.84166 33.2321 5.63521 33.5925 5.58297 33.9894C5.53072 34.3862 5.63687 34.7877 5.87849 35.1071V35.1088ZM4.74205 29.5765C4.37913 29.738 4.09485 30.0362 3.95117 30.4061C3.80749 30.776 3.81605 31.1876 3.97499 31.5512L4.01034 31.6324L4.04569 31.7153L4.08104 31.7965L4.08457 31.8018C4.16251 31.9811 4.2752 32.1433 4.41615 32.2789C4.55711 32.4146 4.72355 32.5211 4.90589 32.5923C5.08823 32.6635 5.28287 32.6979 5.47861 32.6937C5.67434 32.6895 5.86731 32.6466 6.0464 32.5677C6.40818 32.4045 6.6909 32.1054 6.83319 31.7354C6.97548 31.3653 6.96585 30.9542 6.80638 30.5912L6.76397 30.4888L6.73215 30.4182L6.70034 30.3477C6.62365 30.1677 6.51188 30.0047 6.37153 29.8683C6.23119 29.7318 6.06507 29.6246 5.88284 29.5528C5.70062 29.4811 5.50592 29.4462 5.31007 29.4503C5.11422 29.4543 4.92114 29.4972 4.74205 29.5765ZM3.79118 26.0594C3.41121 26.1602 3.0866 26.4069 2.88824 26.7458C2.68988 27.0847 2.63389 27.4883 2.73251 27.8682L2.75548 27.9565L2.76785 28.0094L2.78906 28.0924L2.79083 28.0977C2.83879 28.2856 2.92354 28.4623 3.04019 28.6174C3.15685 28.7725 3.3031 28.9031 3.47051 29.0015C3.63793 29.0999 3.8232 29.1643 4.01565 29.1909C4.2081 29.2175 4.40392 29.2058 4.59182 29.1565C4.9714 29.0539 5.29496 28.8056 5.49195 28.4657C5.68895 28.1259 5.74339 27.7221 5.64343 27.3424L5.61515 27.2382L5.59748 27.1624L5.5851 27.1182C5.53773 26.9307 5.4536 26.7543 5.33759 26.5994C5.22157 26.4444 5.07596 26.3139 4.90917 26.2155C4.74238 26.1171 4.5577 26.0526 4.36582 26.0258C4.17393 25.999 3.97862 26.0104 3.79118 26.0594ZM2.28182 24.1465V24.2347C2.28358 24.27 2.28535 24.3088 2.29065 24.3459C2.32684 24.7068 2.50497 25.0387 2.78597 25.2687C3.06696 25.4986 3.42785 25.6078 3.78942 25.5724C4.1516 25.5324 4.48321 25.3508 4.71173 25.0675C4.94025 24.7841 5.04711 24.4218 5.00893 24.06L4.98595 23.8571L4.97712 23.7794L4.96828 23.6965C4.9338 23.358 4.77342 23.0448 4.51882 22.8187C4.26422 22.5925 3.93393 22.47 3.59323 22.4753C3.23319 22.4864 2.89222 22.6395 2.64507 22.9012C2.39792 23.1628 2.26475 23.5117 2.27475 23.8712L2.27828 24.0547L2.28182 24.1465ZM3.6003 21.8665C3.75946 21.8726 3.91827 21.8473 4.06763 21.7921C4.21699 21.7368 4.35396 21.6527 4.47069 21.5445C4.58743 21.4363 4.68163 21.3062 4.74791 21.1616C4.81419 21.017 4.85124 20.8607 4.85693 20.7018L4.8693 20.4194L4.87107 20.34L4.87461 20.2571C4.88691 19.9797 4.80076 19.7069 4.63134 19.4867C4.46191 19.2665 4.22009 19.1131 3.94848 19.0535C3.79759 19.0218 3.6419 19.0202 3.49036 19.0487C3.33883 19.0773 3.19444 19.1354 3.06551 19.2199C2.93657 19.3044 2.82563 19.4134 2.73906 19.5408C2.65249 19.6683 2.592 19.8115 2.56107 19.9624L2.50804 20.2182L2.4886 20.3082L2.47093 20.3965C2.4338 20.5689 2.43469 20.7473 2.47352 20.9194C2.51236 21.0914 2.58821 21.253 2.69583 21.3928C2.80344 21.5327 2.94023 21.6475 3.09672 21.7293C3.25321 21.8111 3.42565 21.8579 3.60207 21.8665H3.6003ZM4.1588 17.9594C4.27443 17.9802 4.39304 17.978 4.50779 17.9528C4.62255 17.9277 4.73119 17.8801 4.82746 17.8129C4.92372 17.7456 5.00571 17.66 5.06871 17.561C5.1317 17.462 5.17446 17.3515 5.19451 17.2359L5.22985 17.0294L5.24576 16.9482L5.2599 16.8653C5.29669 16.6651 5.26155 16.4583 5.16069 16.2814C5.05982 16.1045 4.89968 15.9688 4.70847 15.8982C4.60211 15.8594 4.48907 15.842 4.37592 15.847C4.26277 15.8521 4.15175 15.8796 4.04932 15.9279C3.94689 15.9761 3.85507 16.0442 3.77921 16.1282C3.70334 16.2122 3.64493 16.3104 3.60737 16.4171L3.54198 16.5988L3.51193 16.6853L3.48189 16.7682C3.43703 16.8906 3.41944 17.0213 3.43032 17.1511C3.44121 17.281 3.48032 17.4069 3.54492 17.5201C3.60953 17.6334 3.69807 17.7311 3.8044 17.8067C3.91073 17.8823 4.03227 17.9338 4.16057 17.9577L4.1588 17.9594ZM31.2956 43.2953L31.3504 43.2247L31.4034 43.1559L31.5024 43.0235C31.604 42.889 31.6557 42.7234 31.6486 42.5551C31.6415 42.3868 31.5761 42.2261 31.4635 42.1006C31.4007 42.0301 31.3245 41.9728 31.2393 41.9319C31.1542 41.891 31.0617 41.8675 30.9673 41.8625C30.873 41.8576 30.7786 41.8714 30.6896 41.9032C30.6006 41.935 30.5188 41.9841 30.449 42.0477L30.3907 42.1006L30.3324 42.1553L30.1945 42.2806C30.1137 42.3556 30.0501 42.4473 30.0083 42.5493C29.9664 42.6513 29.9473 42.7611 29.9521 42.8712C29.957 42.9814 29.9858 43.0891 30.0365 43.187C30.0872 43.2849 30.1586 43.3706 30.2458 43.4382C30.3237 43.4984 30.4129 43.5426 30.5081 43.5681C30.6033 43.5936 30.7026 43.5999 30.8002 43.5868C30.8979 43.5737 30.992 43.5413 31.077 43.4916C31.1621 43.4418 31.2364 43.3739 31.2956 43.2953ZM28.641 46.0359L28.7099 45.9777L28.7753 45.923L28.9591 45.7641C29.1438 45.6021 29.2668 45.3814 29.3074 45.1393C29.3479 44.8972 29.3036 44.6485 29.1818 44.4353C29.1135 44.3158 29.0221 44.211 28.913 44.1269C28.8038 44.0429 28.6791 43.9813 28.546 43.9457C28.4129 43.9101 28.274 43.9012 28.1374 43.9195C28.0008 43.9378 27.8692 43.983 27.7502 44.0524L27.6866 44.0912L27.6194 44.13L27.3879 44.2659C27.2514 44.3481 27.1345 44.4589 27.045 44.5906C26.9556 44.7223 26.8958 44.8718 26.8697 45.0287C26.8437 45.1857 26.852 45.3465 26.8942 45.4999C26.9363 45.6534 27.0113 45.7959 27.1139 45.9177C27.206 46.0261 27.3188 46.1152 27.4456 46.1799C27.5724 46.2446 27.7108 46.2836 27.8528 46.2946C27.9947 46.3056 28.1375 46.2884 28.2728 46.244C28.4081 46.1996 28.5332 46.1288 28.641 46.0359ZM26.308 46.2618C26.2562 46.1024 26.1733 45.9548 26.064 45.8275C25.9548 45.7003 25.8214 45.5959 25.6715 45.5204C25.5216 45.4449 25.3583 45.3999 25.1909 45.3878C25.0234 45.3757 24.8553 45.3968 24.6961 45.45L24.6254 45.4747L24.5512 45.4994L24.3621 45.563C24.1917 45.6219 24.0354 45.7154 23.9029 45.8375C23.7705 45.9597 23.6648 46.1078 23.5924 46.2727C23.52 46.4376 23.4826 46.6157 23.4824 46.7957C23.4823 46.9757 23.5194 47.1538 23.5915 47.3188C23.6582 47.4746 23.7551 47.6156 23.8768 47.7336C23.9984 47.8517 24.1423 47.9445 24.3001 48.0067C24.4579 48.0689 24.6264 48.0993 24.796 48.096C24.9656 48.0927 25.1329 48.0559 25.2882 47.9877L25.3712 47.9524L25.4508 47.9171L25.6134 47.8447C25.9045 47.7131 26.1366 47.4786 26.2648 47.1863C26.3931 46.894 26.4085 46.5647 26.308 46.2618ZM21.4087 46.2088L21.3363 46.2177L21.2603 46.2282L21.1436 46.2441H21.1312C20.7519 46.3 20.4101 46.5037 20.1809 46.8107C19.9516 47.1176 19.8536 47.5028 19.9082 47.8818C20.0178 48.6759 20.7459 49.2265 21.5307 49.1171L21.619 49.1047L21.7056 49.0924L21.7905 49.0818C22.1657 49.0258 22.5039 48.8251 22.7326 48.5229C22.9612 48.2207 23.0621 47.841 23.0135 47.4653C22.9914 47.2773 22.9323 47.0956 22.8395 46.9305C22.7468 46.7654 22.6222 46.6203 22.4731 46.5035C22.3239 46.3867 22.1531 46.3006 21.9704 46.25C21.7877 46.1994 21.5968 46.1854 21.4087 46.2088ZM18.0206 46.3271L17.9481 46.3253L17.8704 46.3182L17.7519 46.3129L17.7413 46.3112C17.5477 46.3031 17.3544 46.3333 17.1725 46.3999C16.9906 46.4665 16.8236 46.5683 16.6811 46.6995C16.5386 46.8306 16.4234 46.9885 16.3421 47.1641C16.2608 47.3397 16.215 47.5296 16.2072 47.7229C16.1975 47.9165 16.226 48.11 16.2911 48.2925C16.3563 48.475 16.4568 48.6429 16.587 48.7866C16.7171 48.9303 16.8743 49.0471 17.0497 49.1301C17.225 49.2131 17.415 49.2609 17.6088 49.2706L17.6972 49.2741L17.7855 49.2777L17.8739 49.2812C18.6728 49.3182 19.355 48.6988 19.4027 47.8924C19.4269 47.5019 19.295 47.1178 19.0359 46.8243C18.7767 46.5309 18.4116 46.352 18.0206 46.3271ZM14.6413 45.8312L14.5671 45.8135L14.4911 45.7959L14.3744 45.7677L14.3621 45.7659C13.9771 45.6982 13.5809 45.7815 13.256 45.9984C12.9311 46.2154 12.7026 46.5492 12.6183 46.9303C12.5339 47.3113 12.6002 47.7102 12.8032 48.0437C13.0063 48.3771 13.3305 48.6194 13.7081 48.72L13.7965 48.7377L13.8831 48.7553L13.9715 48.7765C14.3571 48.8614 14.7607 48.7907 15.0944 48.5798C15.4281 48.3689 15.6648 48.035 15.753 47.6506C15.8462 47.2622 15.7816 46.8527 15.5733 46.5118C15.365 46.1708 15.0299 45.9261 14.6413 45.8312ZM11.5395 44.6577L11.4405 44.6082L11.3698 44.5729L11.2991 44.5394C11.1242 44.452 10.9336 44.4003 10.7384 44.3872C10.5433 44.3741 10.3475 44.4 10.1624 44.4632C9.97735 44.5264 9.80674 44.6258 9.66053 44.7555C9.51433 44.8853 9.39544 45.0428 9.3108 45.2188C9.13426 45.5748 9.10579 45.986 9.23159 46.3628C9.3574 46.7397 9.62728 47.0516 9.98242 47.2306L10.062 47.2694L10.1415 47.31L10.2193 47.3471L10.2263 47.3506C10.4018 47.4371 10.5928 47.488 10.7881 47.5004C10.9835 47.5127 11.1793 47.4863 11.3644 47.4227C11.5494 47.359 11.72 47.2593 11.8663 47.1294C12.0125 46.9995 12.1315 46.842 12.2164 46.6659C12.3915 46.3096 12.4186 45.8988 12.2918 45.5227C12.165 45.1466 11.8947 44.8357 11.5395 44.6577ZM8.57909 42.9229L8.49249 42.8612L8.42887 42.8171L8.39352 42.7906C8.23659 42.6773 8.05861 42.5963 7.86997 42.5525C7.68133 42.5087 7.48584 42.5029 7.29493 42.5354C7.10401 42.5679 6.92152 42.6382 6.75812 42.742C6.59473 42.8458 6.45371 42.9811 6.34332 43.14C6.11631 43.4607 6.025 43.8578 6.08918 44.2453C6.15336 44.6327 6.36786 44.9794 6.6862 45.21L6.76043 45.2647L6.80285 45.2947L6.87354 45.3441L6.88061 45.3494C7.03837 45.4617 7.21685 45.5418 7.40574 45.5848C7.59464 45.6279 7.79021 45.6332 7.98116 45.6004C8.17211 45.5675 8.35465 45.4973 8.51826 45.3936C8.68186 45.29 8.82328 45.155 8.93434 44.9965C9.16046 44.6739 9.25016 44.2754 9.18399 43.8872C9.11782 43.4991 8.89936 43.1526 8.57909 42.9229ZM5.99868 40.8194L5.85552 40.6782L5.80073 40.6235L5.74064 40.5671C5.49695 40.3304 5.17274 40.1944 4.8329 40.1862C4.49306 40.178 4.16266 40.2983 3.90783 40.5229C3.63855 40.7633 3.47481 41.0998 3.45199 41.4598C3.42917 41.8197 3.54911 42.1741 3.78588 42.4465L3.90607 42.5841L3.96616 42.6547L4.02448 42.72L4.10048 42.8012C4.64131 43.3288 5.50734 43.313 6.03226 42.7677C6.28386 42.5035 6.42136 42.1512 6.41507 41.7867C6.40879 41.4222 6.25923 41.0748 5.99868 40.8194ZM3.74346 38.3471L3.57202 38.1229L3.5243 38.0594L3.47482 37.9941C3.30764 37.7737 3.06714 37.62 2.7966 37.5608C2.52606 37.5016 2.24324 37.5407 1.99903 37.6712C1.7243 37.82 1.5195 38.071 1.42915 38.3697C1.33879 38.6685 1.3702 38.9907 1.51653 39.2665L1.63671 39.4977L1.67913 39.5788L1.72155 39.6582C1.80285 39.8139 1.91742 39.9499 2.05716 40.0565C2.1969 40.163 2.35839 40.2377 2.5302 40.275C2.70202 40.3124 2.87996 40.3116 3.05144 40.2727C3.22292 40.2339 3.38375 40.1578 3.52254 40.05C3.77605 39.8521 3.94135 39.5624 3.98269 39.2438C4.02403 38.9251 3.93809 38.603 3.74346 38.3471ZM1.79048 35.4706L1.6862 35.2871L1.64732 35.2165L1.60667 35.1459C1.5073 34.9686 1.34793 34.8326 1.15714 34.7621C0.966359 34.6915 0.756654 34.6912 0.565662 34.7612C0.350933 34.8414 0.17661 35.003 0.0806211 35.2109C-0.0153674 35.4187 -0.0252536 35.6561 0.0531135 35.8712L0.118508 36.0529L0.150321 36.1394L0.180367 36.2224C0.223666 36.3448 0.293438 36.4562 0.384726 36.5486C0.476013 36.6411 0.586575 36.7124 0.708555 36.7573C0.830536 36.8023 0.96094 36.8199 1.0905 36.8089C1.22007 36.7979 1.34561 36.7585 1.4582 36.6935C1.66388 36.5746 1.81419 36.3794 1.87642 36.1503C1.93865 35.9213 1.90776 35.677 1.79048 35.4706ZM38.4024 38.5218L38.3988 38.4335L38.3953 38.3453L38.3864 38.1777C38.3795 38.0096 38.3138 37.8493 38.2008 37.7245C38.0878 37.5998 37.9346 37.5185 37.7679 37.4947C37.6741 37.4821 37.5787 37.488 37.4872 37.5122C37.3957 37.5364 37.3099 37.5784 37.2347 37.6358C37.1595 37.6932 37.0964 37.7648 37.049 37.8466C37.0016 37.9284 36.9708 38.0187 36.9584 38.1124L36.946 38.19L36.9372 38.2694L36.9107 38.4547C36.8958 38.5636 36.9051 38.6745 36.9378 38.7795C36.9706 38.8844 37.026 38.981 37.1001 39.0622C37.1743 39.1435 37.2654 39.2075 37.367 39.2498C37.4686 39.2921 37.5783 39.3117 37.6883 39.3071C37.7869 39.3025 37.8837 39.2786 37.973 39.2367C38.0623 39.1947 38.1424 39.1355 38.2088 39.0626C38.2751 38.9896 38.3264 38.9043 38.3596 38.8115C38.3928 38.7186 38.4073 38.6202 38.4024 38.5218ZM38.116 42.3406L38.1319 42.2506L38.1461 42.1641L38.1867 41.9259C38.2347 41.6666 38.1827 41.3988 38.0412 41.1762C37.8997 40.9536 37.6791 40.7926 37.4237 40.7256C37.1683 40.6586 36.8969 40.6905 36.6641 40.815C36.4313 40.9394 36.2542 41.1471 36.1684 41.3965L36.1418 41.4671L36.1171 41.5429L36.027 41.7953C35.9733 41.9451 35.9532 42.1048 35.9679 42.2632C35.9827 42.4216 36.0319 42.5748 36.1122 42.7122C36.1926 42.8496 36.302 42.9677 36.4329 43.0584C36.5638 43.1491 36.713 43.21 36.87 43.2371C37.0108 43.2602 37.1548 43.2554 37.2938 43.2229C37.4327 43.1903 37.5638 43.1307 37.6796 43.0474C37.7954 42.9641 37.8935 42.8587 37.9684 42.7374C38.0433 42.6162 38.0935 42.4813 38.116 42.3406ZM36.7905 46.0059L36.8311 45.9247L36.87 45.8471L36.9495 45.6847C37.0889 45.3981 37.1172 45.0702 37.0291 44.7641C36.941 44.4579 36.7427 44.195 36.4723 44.0259C36.3299 43.9379 36.1713 43.8789 36.0059 43.8525C35.8404 43.826 35.6713 43.8326 35.5084 43.8718C35.3456 43.9111 35.1921 43.9821 35.0569 44.081C34.9217 44.1798 34.8075 44.3045 34.7208 44.4477L34.682 44.5112L34.6413 44.5765L34.5353 44.7494C34.4416 44.9034 34.3808 45.075 34.3567 45.2536C34.3326 45.4321 34.3458 45.6137 34.3955 45.7869C34.4451 45.9601 34.5301 46.1212 34.6451 46.26C34.7601 46.3988 34.9026 46.5124 35.0637 46.5935C35.2155 46.6696 35.3809 46.7147 35.5503 46.7262C35.7197 46.7378 35.8897 46.7156 36.0504 46.6609C36.2111 46.6062 36.3593 46.5201 36.4864 46.4077C36.6134 46.2952 36.7168 46.1586 36.7905 46.0059ZM34.6342 49.3041L34.6943 49.2371L34.7527 49.1718L34.811 49.1082C35.0627 48.8241 35.1935 48.4531 35.1757 48.0742C35.1579 47.6953 34.9928 47.3382 34.7155 47.0788C34.5776 46.9501 34.4154 46.8499 34.2384 46.7842C34.0614 46.7184 33.8731 46.6883 33.6845 46.6957C33.4958 46.7031 33.3104 46.7478 33.1391 46.8272C32.9678 46.9066 32.814 47.0191 32.6866 47.1582L32.6371 47.2112L32.584 47.2694L32.5063 47.3577C32.5027 47.3577 32.4992 47.3629 32.4974 47.3647C32.2421 47.6514 32.1101 48.0269 32.1299 48.41C32.1498 48.7931 32.3199 49.153 32.6035 49.4118C32.7434 49.5388 32.9072 49.6369 33.0854 49.7004C33.2635 49.7638 33.4525 49.7913 33.6414 49.7813C33.8302 49.7713 34.0153 49.7239 34.1857 49.642C34.3561 49.5601 34.5086 49.4453 34.6342 49.3041ZM31.7251 51.9688L31.7958 51.9124L31.8647 51.8594L31.9336 51.8065C32.2411 51.5688 32.4433 51.2205 32.4968 50.8359C32.5503 50.4514 32.4509 50.0612 32.22 49.7488C32.1058 49.5934 31.9618 49.4621 31.7964 49.3625C31.6311 49.263 31.4476 49.1972 31.2566 49.169C31.0655 49.1408 30.8708 49.1507 30.6837 49.1981C30.4965 49.2455 30.3206 49.3295 30.1662 49.4453L30.1061 49.4912L30.0425 49.5371L29.9488 49.6077C29.9453 49.6129 29.9418 49.6129 29.9382 49.6165C29.6282 49.8569 29.4258 50.2097 29.3748 50.5982C29.3238 50.9868 29.4285 51.3798 29.6661 51.6918C30.1609 52.3412 31.08 52.4665 31.7251 51.9688ZM27.2624 51.2559L27.1934 51.2912L27.1228 51.3265L27.0167 51.3794L27.0061 51.3865C26.6523 51.5738 26.3867 51.8928 26.2666 52.2742C26.1465 52.6557 26.1817 53.069 26.3645 53.4247C26.4542 53.6005 26.5779 53.7567 26.7284 53.8844C26.879 54.0122 27.0533 54.1089 27.2415 54.1689C27.4297 54.229 27.6279 54.2512 27.8247 54.2343C28.0215 54.2175 28.2131 54.1618 28.3882 54.0706L28.4678 54.0282L28.5437 53.9877L28.6233 53.9471C28.9738 53.762 29.2378 53.4473 29.3587 53.0703C29.4796 52.6932 29.4478 52.2839 29.2702 51.93C29.184 51.7529 29.0634 51.5947 28.9153 51.4646C28.7673 51.3346 28.5948 51.2353 28.4079 51.1725C28.221 51.1097 28.0234 51.0848 27.8267 51.0991C27.63 51.1134 27.4382 51.1667 27.2624 51.2559ZM24.1341 52.3659L24.028 52.3924L23.9538 52.41L23.8796 52.4312C23.4947 52.5267 23.1636 52.7709 22.9591 53.1101C22.7546 53.4493 22.6935 53.8558 22.7891 54.24C22.8335 54.4306 22.9153 54.6105 23.0297 54.7694C23.1441 54.9283 23.2888 55.063 23.4555 55.1658C23.6222 55.2687 23.8077 55.3376 24.0012 55.3686C24.1947 55.3996 24.3924 55.3921 24.583 55.3465L24.6714 55.3253L24.7562 55.3041L24.8393 55.2829H24.8481C25.233 55.1847 25.5635 54.9385 25.7674 54.598C25.9713 54.2575 26.0322 53.8504 25.9368 53.4653C25.8916 53.2744 25.809 53.0944 25.6937 52.9356C25.5784 52.7768 25.4327 52.6424 25.2651 52.5402C25.0974 52.438 24.9112 52.3699 24.717 52.34C24.5229 52.3101 24.3248 52.3189 24.1341 52.3659ZM20.7636 52.9553L20.6576 52.9659L20.5798 52.9712L20.5339 52.9747C19.7208 53.04 19.1217 53.7512 19.1871 54.57C19.2489 55.3871 19.9594 55.9994 20.7689 55.9341L20.8608 55.9271L20.9138 55.9235L20.9987 55.9165H21.0057C21.3971 55.8819 21.7588 55.6939 22.0116 55.3935C22.2644 55.0932 22.3876 54.705 22.3543 54.3141C22.3395 54.1205 22.2867 53.9317 22.1987 53.7585C22.1107 53.5853 21.9893 53.4312 21.8415 53.3049C21.6937 53.1787 21.5225 53.0828 21.3375 53.0228C21.1525 52.9628 20.9575 52.9399 20.7636 52.9553ZM17.4444 53.0153L17.2447 53.0012L17.1669 52.9959L17.0839 52.9888C16.7308 52.9619 16.381 53.073 16.1085 53.2988C15.836 53.5247 15.662 53.8474 15.6235 54.1989C15.5849 54.5504 15.6848 54.9031 15.9019 55.1824C16.119 55.4618 16.4364 55.6459 16.7869 55.6959L16.9672 55.7224L17.0556 55.7365L17.144 55.7506L17.25 55.7612C17.4298 55.7732 17.6102 55.7497 17.7808 55.692C17.9515 55.6344 18.1091 55.5437 18.2447 55.4252C18.3803 55.3068 18.4911 55.1628 18.5709 55.0015C18.6508 54.8402 18.698 54.6648 18.7099 54.4853C18.7367 54.123 18.6185 53.7648 18.3813 53.4892C18.1441 53.2137 17.8072 53.0433 17.4444 53.0153ZM14.1394 52.583L13.8654 52.5229L13.7876 52.5053L13.7081 52.4877C13.4371 52.4281 13.1537 52.467 12.9088 52.5974C12.6639 52.7277 12.4735 52.941 12.372 53.1988C12.2551 53.4882 12.2575 53.8119 12.3787 54.0995C12.4998 54.3871 12.7299 54.6152 13.0188 54.7341L13.261 54.833L13.3458 54.8682L13.4306 54.9018C13.594 54.9674 13.7697 54.9965 13.9455 54.9871C14.1213 54.9776 14.2929 54.9299 14.4482 54.8471C14.6035 54.7644 14.7388 54.6486 14.8445 54.5081C14.9503 54.3675 15.0239 54.2055 15.0602 54.0335C15.1298 53.7193 15.0721 53.3904 14.8995 53.1185C14.727 52.8467 14.4537 52.6542 14.1394 52.583ZM10.8096 51.6459L10.6152 51.5735L10.5392 51.5435L10.4614 51.5153C10.2706 51.4442 10.0607 51.4436 9.86944 51.5135C9.67822 51.5834 9.51833 51.7192 9.41861 51.8965C9.30431 52.0953 9.27342 52.3313 9.33269 52.5528C9.39196 52.7743 9.53658 52.9634 9.73498 53.0788L9.90112 53.1759L9.98065 53.2218L10.0566 53.2659C10.1693 53.3303 10.2947 53.3693 10.424 53.3802C10.5533 53.3912 10.6835 53.3738 10.8054 53.3292C10.9273 53.2847 11.0379 53.2141 11.1296 53.1224C11.2213 53.0306 11.2919 52.92 11.3363 52.7982C11.4183 52.5756 11.4089 52.3297 11.3103 52.1139C11.2117 51.8981 11.0317 51.7299 10.8096 51.6459ZM39.4769 30.9477L39.5194 31.0182L39.6183 31.1771C39.6765 31.2701 39.7546 31.3492 39.8469 31.4087C39.9392 31.4682 40.0436 31.5065 40.1525 31.521C40.2614 31.5355 40.3722 31.5258 40.4769 31.4926C40.5817 31.4594 40.6778 31.4034 40.7583 31.3288C40.9052 31.1927 40.9923 31.0041 41.0005 30.8041C41.0088 30.6041 40.9376 30.409 40.8025 30.2612L40.7424 30.1941L40.6841 30.1288L40.571 30.0088C40.4585 29.8844 40.3056 29.8038 40.1394 29.7812C39.9731 29.7586 39.8042 29.7955 39.6625 29.8853C39.5008 29.9886 39.3865 30.1514 39.3441 30.3384C39.3018 30.5253 39.3349 30.7214 39.4363 30.8841L39.4752 30.9477H39.4769ZM40.9492 33.9812L40.9757 34.0518L41.0676 34.3077C41.1216 34.4569 41.2079 34.5924 41.3204 34.7045C41.4329 34.8165 41.5689 34.9024 41.7185 34.9558C41.8682 35.0093 42.0278 35.029 42.186 35.0137C42.3442 34.9984 42.497 34.9483 42.6335 34.8671C42.8825 34.7184 43.0626 34.4775 43.1344 34.1968C43.2062 33.9162 43.1641 33.6186 43.0171 33.3688L42.9711 33.2912L42.9287 33.2153L42.805 33.0071C42.6814 32.7957 42.4871 32.6345 42.2564 32.5519C42.0256 32.4693 41.773 32.4705 41.543 32.5553C41.2817 32.6537 41.0699 32.851 40.9534 33.1044C40.8369 33.3578 40.8252 33.6469 40.9209 33.9088L40.9492 33.9794V33.9812ZM41.7799 37.3359L41.8117 37.5353C41.837 37.7131 41.8992 37.8836 41.9944 38.036C42.0895 38.1883 42.2156 38.3191 42.3643 38.42C42.5131 38.5208 42.6814 38.5895 42.8583 38.6217C43.0352 38.6538 43.2169 38.6486 43.3918 38.6065C43.7257 38.523 44.013 38.311 44.1908 38.0167C44.3687 37.7224 44.4226 37.3698 44.3409 37.0359L44.3196 36.9494L44.2984 36.8647L44.256 36.6882C44.2232 36.5246 44.1584 36.3691 44.0653 36.2305C43.9723 36.0919 43.8528 35.9729 43.7137 35.8804C43.5746 35.7879 43.4186 35.7237 43.2547 35.6913C43.0907 35.659 42.922 35.6593 42.7581 35.6921C42.5943 35.7249 42.4385 35.7896 42.2997 35.8825C42.1608 35.9754 42.0417 36.0947 41.9491 36.2335C41.8564 36.3724 41.7921 36.5282 41.7597 36.6919C41.7273 36.8556 41.7276 37.024 41.7604 37.1877L41.771 37.2618L41.7799 37.3359ZM43.4324 39.2029C43.0505 39.1872 42.678 39.3232 42.3964 39.5812C42.1148 39.8392 41.9471 40.1982 41.9301 40.5794L41.9248 40.6535L41.9213 40.7312L41.916 40.8477V40.8582C41.9011 41.2405 42.0386 41.613 42.2984 41.8941C42.5581 42.1753 42.9189 42.3422 43.3016 42.3582C43.6843 42.3696 44.0559 42.2288 44.3347 41.9667C44.6134 41.7046 44.7765 41.3427 44.788 40.9606L44.7933 40.8706L44.7968 40.7824L44.7986 40.6959C44.8131 40.3177 44.6778 39.9491 44.4221 39.6697C44.1665 39.3903 43.8109 39.2226 43.4324 39.2029ZM43.2256 42.8647C43.0372 42.8203 42.8419 42.8135 42.6509 42.8448C42.4599 42.8761 42.277 42.9448 42.1127 43.047C41.9484 43.1492 41.806 43.2828 41.6936 43.4403C41.5813 43.5977 41.5013 43.7757 41.4582 43.9641L41.4423 44.0347L41.4246 44.1141L41.3964 44.2288C41.3964 44.2324 41.3963 44.2359 41.3928 44.2412C41.3505 44.4292 41.3456 44.6238 41.3786 44.8137C41.4115 45.0037 41.4816 45.1852 41.5848 45.3481C41.688 45.511 41.8224 45.652 41.9802 45.763C42.138 45.8741 42.3162 45.953 42.5045 45.9953C42.6929 46.0376 42.8877 46.0424 43.0779 46.0095C43.2682 45.9766 43.45 45.9067 43.6132 45.8036C43.7763 45.7005 43.9175 45.5664 44.0287 45.4088C44.1399 45.2513 44.219 45.0734 44.2613 44.8853L44.2825 44.7953L44.3002 44.7088L44.3179 44.6241C44.4026 44.2465 44.3357 43.8507 44.1315 43.5218C43.9272 43.1929 43.602 42.957 43.2256 42.8647ZM42.3561 46.4453C42.1752 46.3668 41.9805 46.3249 41.7833 46.3221C41.586 46.3192 41.3902 46.3554 41.2071 46.4286C41.024 46.5018 40.8573 46.6105 40.7165 46.7485C40.5758 46.8865 40.4638 47.0509 40.3872 47.2324L40.3571 47.3029L40.3271 47.3735L40.2776 47.4847L40.2723 47.4953C40.1192 47.865 40.1183 48.2801 40.2699 48.6505C40.4214 49.0209 40.7131 49.3166 41.0817 49.4735C41.2641 49.5494 41.4597 49.5884 41.6572 49.5885C41.8547 49.5885 42.0503 49.5495 42.2327 49.4737C42.415 49.3979 42.5806 49.2869 42.7197 49.1469C42.8589 49.0069 42.969 48.8409 43.0436 48.6582L43.0789 48.5735L43.1107 48.4924L43.1443 48.4094C43.2963 48.0441 43.2988 47.634 43.1515 47.2668C43.0041 46.8996 42.7186 46.6047 42.3561 46.4453ZM38.6993 50.1088L38.6357 50.1971L38.5879 50.2606L38.5438 50.3259C38.3098 50.6459 38.212 51.0452 38.2715 51.4369C38.3311 51.8286 38.5433 52.1809 38.8619 52.4171C39.5229 52.9094 40.4525 52.7682 40.9404 52.0994L40.9934 52.0288L41.0464 51.9565L41.0959 51.8859L41.1012 51.8806C41.3342 51.5587 41.4308 51.1581 41.3699 50.7657C41.309 50.3732 41.0956 50.0205 40.776 49.7841C40.619 49.6675 40.4402 49.5832 40.2502 49.5364C40.0602 49.4895 39.8627 49.4809 39.6694 49.5112C39.476 49.5414 39.2906 49.6098 39.124 49.7125C38.9575 49.8151 38.8131 49.9498 38.6993 50.1088ZM36.4936 52.7453L36.4193 52.8212L36.3628 52.8741L36.331 52.9094C36.0524 53.1862 35.8947 53.5616 35.892 53.9539C35.8894 54.3462 36.0421 54.7237 36.3168 55.0041C36.4514 55.1434 36.6124 55.2545 36.7904 55.331C36.9684 55.4074 37.1599 55.4478 37.3537 55.4496C37.5475 55.4514 37.7398 55.4146 37.9192 55.3415C38.0986 55.2683 38.2617 55.1603 38.3988 55.0235L38.466 54.9582L38.5013 54.9212L38.5632 54.8594L38.5667 54.8559C38.845 54.5775 39.0023 54.2009 39.0047 53.8075C39.007 53.4142 38.8541 53.0358 38.5791 52.7541C38.4434 52.6157 38.2815 52.5055 38.1028 52.43C37.9241 52.3546 37.7322 52.3153 37.5382 52.3145C37.3442 52.3136 37.1519 52.3513 36.9726 52.4253C36.7933 52.4992 36.6304 52.608 36.4936 52.7453ZM33.9891 54.9406L33.8265 55.0606L33.7629 55.1065L33.6975 55.1559C33.423 55.3595 33.234 55.6578 33.1674 55.9927C33.1008 56.3276 33.1612 56.6753 33.337 56.9682C33.4283 57.1207 33.549 57.2535 33.6921 57.359C33.8353 57.4645 33.998 57.5406 34.1708 57.5828C34.3436 57.625 34.5231 57.6325 34.6988 57.6048C34.8746 57.5772 35.043 57.515 35.1945 57.4218L35.35 57.3247L35.4278 57.2771L35.502 57.2312C35.6634 57.131 35.8025 56.9988 35.9106 56.8428C36.0188 56.6868 36.0937 56.5103 36.1308 56.3242C36.1679 56.1381 36.1664 55.9464 36.1264 55.7609C36.0863 55.5755 36.0086 55.4002 35.8979 55.2459C35.7932 55.1001 35.6606 54.9764 35.5077 54.882C35.3548 54.7876 35.1847 54.7244 35.0073 54.696C34.8298 54.6677 34.6484 54.6747 34.4737 54.7166C34.299 54.7586 34.1343 54.8347 33.9891 54.9406ZM31.1825 56.7529L30.9351 56.8853L30.8644 56.9206L30.7919 56.9594C30.5456 57.0901 30.3533 57.3032 30.2486 57.5614C30.1439 57.8195 30.1335 58.1062 30.2193 58.3712C30.2658 58.518 30.341 58.6541 30.4406 58.7717C30.5401 58.8893 30.6621 58.9861 30.7993 59.0563C30.9366 59.1265 31.0864 59.1689 31.2401 59.1809C31.3939 59.193 31.5485 59.1745 31.695 59.1265L31.9425 59.0453L32.0308 59.0153L32.1139 58.9871C32.281 58.9305 32.4339 58.8386 32.5621 58.7176C32.6904 58.5966 32.7909 58.4494 32.8569 58.286C32.9228 58.1226 32.9526 57.9469 32.9443 57.771C32.936 57.595 32.8896 57.4229 32.8085 57.2665C32.7361 57.1256 32.6365 57.0005 32.5153 56.8983C32.3941 56.7962 32.2538 56.7191 32.1026 56.6715C31.9513 56.6239 31.7921 56.6067 31.6342 56.621C31.4762 56.6353 31.3227 56.679 31.1825 56.7529ZM28.033 58.1912L27.8386 58.2618L27.7608 58.29L27.683 58.3182C27.4915 58.3882 27.3308 58.5233 27.2293 58.6999C27.1278 58.8765 27.0919 59.0832 27.1281 59.2835C27.1466 59.3952 27.1872 59.502 27.2474 59.5978C27.3076 59.6937 27.3863 59.7767 27.4788 59.842C27.5714 59.9073 27.6759 59.9537 27.7865 59.9784C27.8971 60.0031 28.0115 60.0056 28.1231 59.9859L28.314 59.9506L28.4024 59.9365L28.4907 59.9206C28.6188 59.8966 28.7402 59.8451 28.8464 59.7697C28.9527 59.6943 29.0413 59.5968 29.1061 59.4839C29.171 59.371 29.2105 59.2454 29.2221 59.1157C29.2336 58.9861 29.2169 58.8555 29.1729 58.733C29.1341 58.6223 29.0738 58.5205 28.9954 58.4333C28.9169 58.3461 28.822 58.2753 28.716 58.2249C28.61 58.1746 28.4951 58.1456 28.3779 58.1399C28.2606 58.1341 28.1434 58.1515 28.033 58.1912ZM37.372 22.3729L37.2836 22.3606L37.1988 22.35L37.0344 22.3288C36.8677 22.3071 36.6987 22.3447 36.5572 22.4351C36.4156 22.5254 36.3104 22.6628 36.2603 22.8229C36.2015 23.0053 36.2172 23.2033 36.3039 23.3742C36.3906 23.545 36.5413 23.6748 36.7233 23.7353L36.7976 23.76L36.8736 23.7847L37.0503 23.8429C37.1552 23.8755 37.266 23.8848 37.3748 23.87C37.4836 23.8552 37.5879 23.8167 37.6803 23.7573C37.7726 23.6979 37.8508 23.619 37.9093 23.5262C37.9678 23.4334 38.0052 23.3288 38.0188 23.22C38.0455 23.022 37.9923 22.8216 37.871 22.6628C37.7497 22.504 37.5702 22.3997 37.372 22.3729ZM39.7933 25.0906L39.8587 25.1277L39.9259 25.1665L40.1574 25.3006C40.2954 25.379 40.4491 25.426 40.6074 25.4383C40.7658 25.4506 40.9248 25.4279 41.0734 25.3717C41.2219 25.3156 41.3562 25.2275 41.4667 25.1136C41.5772 24.9997 41.6612 24.8629 41.7127 24.7129C41.8093 24.4405 41.7939 24.141 41.6701 23.8798C41.5463 23.6186 41.3239 23.4169 41.0517 23.3188L40.9669 23.2871L40.8873 23.2588L40.6611 23.1777C40.4298 23.0964 40.1773 23.099 39.9478 23.1852C39.7183 23.2714 39.5266 23.4355 39.4062 23.6488C39.2674 23.8919 39.2301 24.1798 39.3026 24.45C39.3751 24.7203 39.5514 24.9494 39.7933 25.0906ZM44.4045 25.2724L44.332 25.2194L44.2613 25.1665L44.1164 25.0606C43.8609 24.8725 43.5439 24.7871 43.2283 24.8214C42.9127 24.8557 42.6216 25.0072 42.4126 25.2459C42.1884 25.5014 42.0739 25.8347 42.0937 26.1738C42.1136 26.5129 42.2662 26.8306 42.5187 27.0582L42.5752 27.1094L42.6318 27.1624L42.782 27.2965C42.9159 27.4154 43.0733 27.505 43.244 27.5595C43.4146 27.614 43.5949 27.6321 43.773 27.6129C43.9512 27.5936 44.1233 27.5372 44.2783 27.4475C44.4334 27.3577 44.5679 27.2366 44.6731 27.0918C44.8772 26.8146 44.9634 26.4681 44.9131 26.1278C44.8628 25.7875 44.68 25.4789 44.4045 25.2724ZM47.0026 30.0229C47.3033 29.7843 47.4979 29.437 47.5442 29.0563C47.5905 28.6755 47.4848 28.2918 47.25 27.9882L47.1952 27.9177L47.1422 27.8471L47.0892 27.78C46.8584 27.4818 46.5188 27.2869 46.1446 27.238C45.7703 27.189 45.3919 27.29 45.092 27.5188C44.788 27.753 44.5887 28.0972 44.5371 28.477C44.4854 28.8569 44.5858 29.2417 44.8163 29.5482L44.8605 29.6065L44.9082 29.6682L44.9789 29.7618L44.986 29.7706C45.1009 29.9203 45.2444 30.0458 45.4083 30.1396C45.5722 30.2335 45.7531 30.2939 45.9405 30.3174C46.128 30.3409 46.3182 30.3269 46.5003 30.2764C46.6823 30.2258 46.8542 30.1397 47.0026 30.0229ZM46.6137 32.4477L46.6473 32.5129L46.6827 32.5835L46.7339 32.6912L46.7392 32.7035C46.827 32.8756 46.9481 33.0286 47.0956 33.1536C47.243 33.2786 47.4138 33.3731 47.5981 33.4317C47.7824 33.4903 47.9765 33.5118 48.1691 33.4949C48.3618 33.4781 48.5492 33.4232 48.7205 33.3335C49.0667 33.1503 49.3266 32.8383 49.4441 32.465C49.5615 32.0918 49.527 31.6874 49.3479 31.3394L49.3073 31.2582L49.2666 31.1806L49.226 31.1029C49.0512 30.7589 48.7467 30.4982 48.3796 30.3781C48.0124 30.258 47.6125 30.2883 47.2677 30.4624C46.9185 30.6403 46.6539 30.9488 46.5314 31.3206C46.4089 31.6924 46.4385 32.0975 46.6137 32.4477ZM47.8986 35.7177L47.9216 35.7935L47.9552 35.91L47.957 35.9224C48.0148 36.1112 48.1095 36.2867 48.2356 36.4388C48.3617 36.5909 48.5167 36.7166 48.6917 36.8087C48.8667 36.9007 49.0581 36.9572 49.2551 36.975C49.452 36.9928 49.6506 36.9715 49.8393 36.9124C50.2206 36.7897 50.5378 36.5213 50.7216 36.1658C50.9054 35.8104 50.9408 35.3968 50.8202 35.0153L50.7937 34.9306L50.7689 34.8459L50.7424 34.7612C50.6269 34.3839 50.3664 34.0676 50.018 33.8814C49.6696 33.6952 49.2616 33.6543 48.8831 33.7677C48.5007 33.8846 48.1801 34.1479 47.9914 34.5C47.8026 34.8521 47.761 35.2645 47.8757 35.6471L47.8986 35.7177ZM51.3928 38.8341L51.3875 38.7459V38.7406C51.3756 38.5448 51.3251 38.3533 51.2389 38.177C51.1527 38.0007 51.0326 37.8431 50.8853 37.7133C50.738 37.5835 50.5665 37.4839 50.3807 37.4204C50.1948 37.3568 49.9982 37.3305 49.8021 37.3429C49.4065 37.3719 49.0385 37.5562 48.7788 37.8556C48.5191 38.1549 48.3888 38.5449 48.4165 38.94L48.4236 39.0494L48.4271 39.1288L48.4342 39.2065C48.4469 39.4011 48.498 39.5914 48.5844 39.7664C48.6708 39.9413 48.7909 40.0976 48.9377 40.2262C49.0846 40.3549 49.2555 40.4534 49.4405 40.5161C49.6255 40.5788 49.821 40.6045 50.016 40.5918C50.211 40.579 50.4015 40.5281 50.5767 40.4418C50.752 40.3555 50.9085 40.2356 51.0373 40.089C51.1661 39.9423 51.2648 39.7717 51.3276 39.587C51.3904 39.4023 51.4162 39.207 51.4034 39.0124L51.3963 38.9241L51.3928 38.8341ZM50.0142 41.0471C49.8203 41.0296 49.6249 41.0506 49.4391 41.1088C49.2534 41.1671 49.081 41.2614 48.9319 41.3863C48.7827 41.5113 48.6598 41.6644 48.5702 41.837C48.4805 42.0095 48.4259 42.1981 48.4094 42.3918L48.3988 42.4977L48.3918 42.5771L48.3882 42.6229C48.3689 42.8159 48.3879 43.0108 48.4441 43.1964C48.5003 43.382 48.5926 43.5547 48.7157 43.7047C48.8389 43.8546 48.9904 43.9789 49.1616 44.0704C49.3329 44.1618 49.5205 44.2187 49.7138 44.2377C49.9072 44.2559 50.1023 44.2358 50.2879 44.1785C50.4735 44.1213 50.646 44.028 50.7954 43.9041C50.9448 43.7801 51.0683 43.6279 51.1587 43.4562C51.249 43.2845 51.3046 43.0967 51.3221 42.9035L51.331 42.81L51.3345 42.7588L51.3433 42.6724V42.6653C51.3813 42.2746 51.2625 41.8848 51.013 41.5814C50.7635 41.2781 50.4055 41.0859 50.0142 41.0471ZM49.5494 44.6947C49.3747 44.6515 49.1933 44.6431 49.0153 44.67C48.8374 44.6969 48.6666 44.7586 48.5126 44.8515C48.3586 44.9445 48.2244 45.0669 48.1179 45.2116C48.0113 45.3564 47.9344 45.5208 47.8916 45.6953L47.8439 45.8929L47.8262 45.9688L47.805 46.0482C47.7234 46.379 47.7682 46.7282 47.9306 47.0278C48.093 47.3273 48.3614 47.5557 48.6834 47.6682C49.3903 47.9082 50.1592 47.5271 50.3978 46.8124L50.4543 46.6394L50.4844 46.5512L50.5126 46.4665L50.5445 46.3606C50.6314 46.0081 50.5758 45.6355 50.3895 45.3237C50.2032 45.0118 49.9014 44.7859 49.5494 44.6947ZM48.4713 48.2418C48.3244 48.1808 48.1668 48.1497 48.0077 48.15C47.8486 48.1503 47.6912 48.1822 47.5445 48.2438C47.3979 48.3053 47.2649 48.3954 47.1534 48.5086C47.0419 48.6219 46.9539 48.7561 46.8948 48.9035L46.7887 49.1647L46.7587 49.2388L46.7286 49.3147C46.6227 49.5719 46.6107 49.8581 46.6947 50.1233C46.7787 50.3884 46.9534 50.6157 47.1881 50.7653C47.736 51.1094 48.4589 50.9418 48.8018 50.3877L48.9397 50.1653L48.9874 50.0877L49.0351 50.01C49.1281 49.86 49.1874 49.6917 49.209 49.5166C49.2306 49.3415 49.2139 49.1639 49.1602 48.9958C49.1064 48.8278 49.0169 48.6734 48.8976 48.5432C48.7784 48.413 48.6341 48.3102 48.4713 48.2418ZM46.619 51.7218C46.5179 51.6622 46.4058 51.6233 46.2894 51.6074C46.1731 51.5915 46.0547 51.5989 45.9412 51.6291C45.8277 51.6593 45.7213 51.7118 45.6283 51.7835C45.5354 51.8551 45.4576 51.9445 45.3995 52.0465L45.2953 52.2282L45.2546 52.2988L45.2122 52.3694C45.1099 52.546 45.073 52.7528 45.1079 52.9537C45.1427 53.1547 45.2472 53.337 45.4031 53.4688C45.4891 53.5422 45.5889 53.5977 45.6966 53.6321C45.8044 53.6666 45.9179 53.6792 46.0306 53.6694C46.1433 53.6595 46.2529 53.6273 46.3531 53.5747C46.4532 53.5221 46.5418 53.4501 46.6137 53.3629L46.7375 53.2112L46.7958 53.1406L46.8523 53.0735C46.9361 52.9734 46.9971 52.8563 47.031 52.7302C47.0649 52.6042 47.071 52.4724 47.0488 52.3438C47.0266 52.2152 46.9767 52.093 46.9025 51.9856C46.8283 51.8782 46.7316 51.7881 46.619 51.7218ZM30.0902 20.0206L30.1609 19.9924L30.2352 19.9606L30.4084 19.89C30.5099 19.8468 30.6008 19.782 30.6748 19.7002C30.7487 19.6184 30.804 19.5215 30.8368 19.4163C30.8696 19.3111 30.8791 19.2 30.8646 19.0907C30.8501 18.9815 30.8121 18.8766 30.753 18.7835C30.7005 18.6999 30.6318 18.6275 30.551 18.5706C30.4702 18.5137 30.3789 18.4734 30.2824 18.452C30.1858 18.4307 30.086 18.4287 29.9887 18.4462C29.8914 18.4638 29.7985 18.5004 29.7155 18.5541L29.6413 18.6035L29.5688 18.6512L29.4292 18.7429C29.2876 18.835 29.1825 18.9734 29.1319 19.1344C29.0812 19.2954 29.0883 19.4689 29.1517 19.6253C29.302 19.9941 29.7226 20.1724 30.0902 20.0206ZM33.3034 19.0694L33.3776 19.0571L33.4536 19.0429L33.7187 18.9953C33.8748 18.9646 34.0224 18.9003 34.1513 18.8071C34.2801 18.7138 34.3871 18.5937 34.4649 18.4551C34.5427 18.3165 34.5895 18.1627 34.6019 18.0043C34.6144 17.8459 34.5922 17.6867 34.537 17.5377C34.488 17.4037 34.4129 17.2807 34.316 17.1759C34.2191 17.0711 34.1023 16.9866 33.9725 16.9272C33.8426 16.8678 33.7022 16.8347 33.5595 16.8298C33.4167 16.8249 33.2744 16.8484 33.1408 16.8988L33.0559 16.9306L32.9746 16.9606L32.7519 17.0435C32.5222 17.1323 32.3306 17.2981 32.2099 17.5126C32.0893 17.7271 32.0472 17.9768 32.0909 18.2188C32.1917 18.7906 32.7343 19.1718 33.3034 19.0694ZM36.9513 16.2194L36.8629 16.2247L36.7746 16.23L36.5961 16.2406C36.2786 16.2638 35.9812 16.4043 35.7619 16.6347C35.5426 16.865 35.4172 17.1687 35.4101 17.4865C35.3992 17.8253 35.5233 18.1545 35.7552 18.402C35.9872 18.6495 36.308 18.795 36.6473 18.8065H36.7215L36.7993 18.81L36.999 18.8153L37.1139 18.8135C37.457 18.7891 37.7764 18.63 38.0022 18.3711C38.2281 18.1121 38.3421 17.7744 38.3193 17.4318C38.2988 17.0899 38.1432 16.7702 37.8867 16.5428C37.6301 16.3155 37.2937 16.1992 36.9513 16.2194ZM40.776 16.4347L40.6912 16.4171L40.6063 16.3994C40.2381 16.3368 39.8598 16.4183 39.5503 16.6271C39.2408 16.8359 39.0238 17.1558 38.9445 17.5203C38.8653 17.8848 38.9299 18.2657 39.1248 18.5839C39.3198 18.902 39.6301 19.1328 39.9913 19.2282L40.0655 19.2424L40.1397 19.26L40.2528 19.2865L40.2634 19.2882C41.0411 19.4559 41.8046 18.9547 41.969 18.1729C42.0494 17.7986 41.9782 17.4077 41.7709 17.0856C41.5636 16.7636 41.237 16.5365 40.8626 16.4541L40.776 16.4365V16.4347ZM44.5229 17.6277L44.4434 17.5959L44.3621 17.5606C44.0053 17.4117 43.604 17.4102 43.2461 17.5564C42.8882 17.7027 42.6031 17.9847 42.4533 18.3406C42.2983 18.7 42.2918 19.106 42.4351 19.4702C42.5784 19.8344 42.86 20.1274 43.2185 20.2853L43.2875 20.3153L43.3582 20.3453L43.4678 20.3929C43.6466 20.4693 43.8388 20.5092 44.0333 20.5104C44.2278 20.5116 44.4205 20.474 44.6002 20.3999C44.78 20.3258 44.9431 20.2166 45.08 20.0787C45.217 19.9409 45.325 19.7771 45.3978 19.5971C45.5484 19.2354 45.5496 18.8289 45.4013 18.4662C45.253 18.1036 44.9671 17.8142 44.606 17.6612L44.5229 17.6277ZM48.0789 19.5247L48.0029 19.4753L47.9287 19.4277L47.8545 19.38C47.5228 19.1664 47.1198 19.093 46.734 19.1761C46.3481 19.2591 46.0112 19.4918 45.7972 19.8229C45.5779 20.1577 45.4997 20.5653 45.5798 20.9573C45.6599 21.3492 45.8918 21.6937 46.2249 21.9159L46.2885 21.9565L46.3539 21.9988L46.4529 22.0659L46.4635 22.0729C46.6293 22.1798 46.8148 22.2526 47.009 22.2874C47.2033 22.3222 47.4025 22.3181 47.5952 22.2754C47.7878 22.2327 47.9701 22.1523 48.1314 22.0388C48.2927 21.9253 48.4299 21.7809 48.5349 21.6141C48.7495 21.276 48.822 20.867 48.7367 20.4759C48.6513 20.0848 48.415 19.743 48.0789 19.5247ZM51.0764 22.2088L51.0164 22.1435L50.9545 22.08L50.8944 22.0165L50.8909 22.0112C50.7561 21.8693 50.5945 21.7555 50.4153 21.6765C50.2361 21.5974 50.0431 21.5547 49.8472 21.5508C49.6514 21.5468 49.4568 21.5818 49.2746 21.6535C49.0924 21.7253 48.9263 21.8325 48.7859 21.9688C48.5012 22.2456 48.337 22.6232 48.3291 23.0198C48.3212 23.4165 48.47 23.8004 48.7435 24.0882L48.8195 24.1677L48.8725 24.2259L48.9273 24.2806C49.4929 24.8806 50.4313 24.9 51.027 24.3282C51.3121 24.0525 51.4772 23.6758 51.4864 23.2795C51.4957 22.8833 51.3484 22.4993 51.0764 22.2106V22.2088ZM53.4907 25.2441L53.4377 25.1665L53.4094 25.1224L53.3599 25.0518L53.3564 25.0465C53.2473 24.8865 53.1074 24.7497 52.945 24.644C52.7826 24.5383 52.6008 24.4659 52.4102 24.4307C52.2195 24.3956 52.0238 24.3986 51.8343 24.4394C51.6448 24.4803 51.4653 24.5583 51.3062 24.6688C50.9837 24.8955 50.7639 25.24 50.6944 25.6276C50.6249 26.0152 50.7114 26.4145 50.9351 26.7388L50.9951 26.8253L51.0393 26.8888L51.0641 26.9259C51.1723 27.0862 51.3114 27.2234 51.4732 27.3295C51.6351 27.4355 51.8165 27.5083 52.0069 27.5437C52.1972 27.579 52.3927 27.5761 52.5819 27.5352C52.7711 27.4942 52.9503 27.4161 53.109 27.3053C53.4323 27.0813 53.6538 26.7387 53.7253 26.3523C53.7968 25.9659 53.7125 25.567 53.4907 25.2424V25.2441ZM54.5123 30.6053C54.8468 30.4709 55.1149 30.2104 55.2584 29.8801C55.402 29.5498 55.4095 29.1764 55.2793 28.8406L55.2122 28.6677L55.1786 28.583L55.1468 28.5C55.0792 28.3237 54.9755 28.1635 54.8425 28.0294C54.7094 27.8954 54.5498 27.7905 54.3739 27.7214C54.198 27.6523 54.0096 27.6206 53.8207 27.6283C53.6318 27.636 53.4466 27.6828 53.2769 27.7659C52.9506 27.9284 52.7014 28.2125 52.5834 28.557C52.4653 28.9014 52.4878 29.2784 52.6459 29.6065L52.7343 29.79L52.7696 29.8606L52.805 29.9329C52.953 30.2386 53.2108 30.4775 53.5271 30.6021C53.8434 30.7266 54.1951 30.7278 54.5123 30.6053ZM56.3327 32.61L56.2974 32.3506L56.2832 32.2588L56.2709 32.1706C56.2479 31.9963 56.1869 31.8291 56.0922 31.6809C55.9975 31.5327 55.8713 31.4071 55.7227 31.3128C55.574 31.2186 55.4065 31.1581 55.2319 31.1355C55.0572 31.113 54.8798 31.129 54.712 31.1824C54.406 31.2815 54.1516 31.4974 54.0043 31.783C53.857 32.0686 53.8287 32.4007 53.9255 32.7071L54.0103 32.9771L54.0351 33.0529L54.0598 33.1306C54.1469 33.4124 54.3375 33.6508 54.5934 33.7981C54.8492 33.9454 55.1514 33.9907 55.4392 33.9248C55.7271 33.8589 55.9794 33.6868 56.1454 33.4429C56.3115 33.1991 56.379 32.9015 56.3345 32.61H56.3327ZM56.5572 36.1112V35.9294C56.5564 35.8066 56.5301 35.6853 56.48 35.5732C56.4299 35.461 56.3571 35.3605 56.2662 35.2778C56.1753 35.1951 56.0682 35.1321 55.9517 35.0928C55.8352 35.0535 55.7118 35.0386 55.5893 35.0493C55.4668 35.0599 55.3478 35.0958 55.2398 35.1546C55.1319 35.2134 55.0373 35.2939 54.962 35.391C54.8867 35.4881 54.8324 35.5997 54.8025 35.7188C54.7725 35.8379 54.7676 35.9619 54.788 36.0829L54.8234 36.2894L54.8375 36.3706L54.8516 36.4535C54.8903 36.6639 55.0061 36.8523 55.1764 36.982C55.3468 37.1117 55.5594 37.1733 55.7728 37.1547C55.9862 37.1362 56.185 37.0389 56.3304 36.8818C56.4758 36.7247 56.5573 36.5192 56.5589 36.3053L56.5572 36.1112ZM22.6406 21.4729L22.676 21.4041L22.7131 21.3335L22.8014 21.1677C22.8519 21.0698 22.8804 20.9622 22.8851 20.8522C22.8897 20.7423 22.8704 20.6326 22.8283 20.5309C22.7863 20.4291 22.7226 20.3377 22.6416 20.263C22.5607 20.1883 22.4645 20.1321 22.3596 20.0982C22.2654 20.0685 22.1662 20.0578 22.0678 20.0666C21.9694 20.0754 21.8737 20.1035 21.7862 20.1495C21.6988 20.1954 21.6214 20.2582 21.5584 20.3343C21.4954 20.4103 21.4481 20.498 21.4193 20.5924L21.3928 20.6788L21.3681 20.7618L21.3186 20.9206C21.2686 21.0814 21.2761 21.2546 21.34 21.4104C21.4038 21.5662 21.52 21.695 21.6685 21.7747C22.0202 21.9618 22.4533 21.8259 22.6406 21.4729ZM24.4964 18.6618L24.5441 18.6018L24.5936 18.5418L24.765 18.3335C24.8661 18.2103 24.939 18.0666 24.9788 17.9123C25.0186 17.7581 25.0244 17.5971 24.9956 17.4404C24.9669 17.2838 24.9043 17.1353 24.8123 17.0052C24.7203 16.8751 24.601 16.7665 24.4628 16.6871C24.3389 16.6167 24.2023 16.5715 24.0608 16.5542C23.9194 16.5368 23.7759 16.5477 23.6386 16.5861C23.5014 16.6245 23.3731 16.6897 23.2613 16.7779C23.1494 16.8661 23.0562 16.9756 22.987 17.1L22.9411 17.1777L22.8969 17.2535L22.7802 17.4653C22.6611 17.6805 22.6202 17.9301 22.6643 18.1719C22.7084 18.4138 22.8349 18.633 23.0224 18.7924C23.4642 19.1682 24.1252 19.1082 24.4964 18.6618ZM26.8912 16.2918L26.9495 16.2459L27.0096 16.2L27.1687 16.0747C27.3085 15.9611 27.4234 15.82 27.5063 15.6602C27.5892 15.5004 27.6383 15.3253 27.6506 15.1457C27.6629 14.9662 27.638 14.786 27.5776 14.6164C27.5172 14.4469 27.4226 14.2915 27.2995 14.16C27.1832 14.0362 27.0435 13.9368 26.8883 13.8675C26.7332 13.7981 26.5658 13.7603 26.3959 13.7562C26.226 13.7521 26.0569 13.7818 25.8986 13.8435C25.7403 13.9053 25.5959 13.9979 25.4738 14.1159L25.4084 14.1777L25.3447 14.2377L25.2157 14.3629C24.9871 14.5856 24.8489 14.8848 24.8277 15.203C24.8065 15.5213 24.9037 15.8361 25.1008 16.0871C25.5392 16.6412 26.338 16.7347 26.8912 16.2918ZM28.5402 11.8006L28.4642 11.8412L28.3864 11.88C28.0523 12.0612 27.8024 12.3657 27.6901 12.7284C27.5778 13.0911 27.6121 13.4833 27.7855 13.8212C27.8709 13.9897 27.9888 14.1397 28.1325 14.2624C28.2762 14.3852 28.4428 14.4783 28.6228 14.5364C28.8027 14.5944 28.9924 14.6164 29.1809 14.6008C29.3693 14.5853 29.5529 14.5326 29.7208 14.4459L29.7862 14.4106L29.8552 14.3753L29.9577 14.3224L29.9683 14.3171C30.3059 14.1342 30.5577 13.8258 30.6689 13.4587C30.7801 13.0916 30.7417 12.6955 30.5621 12.3565C30.4747 12.1889 30.3548 12.0404 30.2095 11.9194C30.0641 11.7984 29.8962 11.7073 29.7154 11.6515C29.5346 11.5957 29.3445 11.5763 29.1562 11.5943C28.9678 11.6123 28.7849 11.6674 28.618 11.7565L28.5402 11.8006ZM32.1669 10.2882L32.0839 10.3147L32.0008 10.3412C31.6308 10.4593 31.3223 10.718 31.1417 11.0614C30.9612 11.4048 30.9231 11.8053 31.0358 12.1765C31.0901 12.3617 31.1806 12.5344 31.302 12.6845C31.4233 12.8347 31.5732 12.9595 31.7431 13.0517C31.9129 13.1438 32.0993 13.2016 32.2915 13.2216C32.4838 13.2416 32.6781 13.2235 32.8633 13.1682L32.934 13.1453L33.0082 13.1241L33.1213 13.0888C33.3076 13.0306 33.4805 12.9362 33.6301 12.8112C33.7798 12.6861 33.9033 12.5328 33.9936 12.3601C34.0839 12.1873 34.1392 11.9985 34.1563 11.8044C34.1734 11.6103 34.1521 11.4147 34.0934 11.2288C34.037 11.044 33.9444 10.8721 33.8211 10.7232C33.6978 10.5742 33.5461 10.4512 33.3749 10.3611C33.2036 10.271 33.0162 10.2157 32.8234 10.1984C32.6307 10.181 32.4364 10.202 32.2518 10.26L32.1669 10.2882ZM34.5441 11.1441C34.5657 11.3403 34.6258 11.5303 34.721 11.7032C34.8162 11.8761 34.9446 12.0286 35.099 12.1519C35.2533 12.2752 35.4305 12.3668 35.6204 12.4216C35.8102 12.4764 36.0091 12.4933 36.2055 12.4712L36.2815 12.4624L36.3592 12.4518L36.4776 12.4377H36.49C36.8864 12.3833 37.2452 12.1743 37.4876 11.8565C37.7301 11.5386 37.8366 11.1378 37.7838 10.7418C37.7595 10.5456 37.6967 10.3561 37.599 10.1842C37.5012 10.0122 37.3704 9.86128 37.2141 9.73996C37.0578 9.61863 36.879 9.52931 36.688 9.47713C36.497 9.42495 36.2976 9.41094 36.1012 9.43589L36.0128 9.44824L35.9244 9.46059L35.8361 9.47118C35.4444 9.52568 35.0898 9.73149 34.8485 10.0443C34.6072 10.3572 34.4968 10.7521 34.5441 11.1441ZM38.2009 10.8529C38.1571 11.2464 38.2713 11.6411 38.5184 11.9507C38.7656 12.2603 39.1255 12.4595 39.5194 12.5047L39.6289 12.5153L39.7049 12.5241L39.7827 12.5312C39.9773 12.5522 40.1742 12.5346 40.3619 12.4793C40.5497 12.4241 40.7246 12.3324 40.8768 12.2093C41.0289 12.0863 41.1551 11.9345 41.2482 11.7626C41.3413 11.5907 41.3995 11.4021 41.4193 11.2077C41.4656 10.8141 41.3535 10.4182 41.1076 10.1071C40.8617 9.79607 40.5021 9.59525 40.1079 9.54883L40.0195 9.54001L39.9312 9.52942L39.8446 9.52059L39.8375 9.51883C39.4433 9.47939 39.0496 9.59772 38.7428 9.84786C38.4359 10.098 38.241 10.4595 38.2009 10.8529ZM42.888 13.1118L42.9906 13.14L43.0648 13.1612L43.109 13.1718C43.2956 13.2235 43.4906 13.2378 43.6828 13.2137C43.875 13.1896 44.0604 13.1277 44.2285 13.0315C44.3965 12.9353 44.5437 12.8067 44.6616 12.6533C44.7795 12.4999 44.8657 12.3246 44.9153 12.1377C45.021 11.7598 44.9728 11.3554 44.781 11.0129C44.5893 10.6704 44.2697 10.4175 43.8919 10.3094L43.8036 10.2847L43.7541 10.2706L43.671 10.2477H43.6639C43.4766 10.197 43.2811 10.1837 43.0887 10.2086C42.8962 10.2336 42.7106 10.2962 42.5424 10.3929C42.3743 10.4897 42.2269 10.6186 42.1088 10.7723C41.9907 10.9261 41.9041 11.1016 41.8541 11.2888C41.7508 11.6674 41.8016 12.0714 41.9952 12.4128C42.1889 12.7543 42.5098 13.0055 42.888 13.1118ZM46.027 14.2006L46.2108 14.2835L46.2815 14.3153L46.3575 14.3506C46.9937 14.6329 47.7537 14.3859 48.0931 13.7594C48.2652 13.4424 48.3051 13.0704 48.2042 12.7241C48.1033 12.3778 47.8696 12.0853 47.554 11.91L47.3949 11.8218L47.3136 11.7777L47.2376 11.7335C47.0718 11.643 46.889 11.5879 46.7007 11.5718C46.5125 11.5556 46.3229 11.5787 46.1441 11.6396C45.9652 11.7005 45.801 11.7979 45.6619 11.9256C45.5228 12.0532 45.4118 12.2084 45.3359 12.3812C45.1885 12.7143 45.1783 13.0919 45.3076 13.4324C45.437 13.7729 45.6954 14.0489 46.027 14.2006ZM48.9856 15.7465L49.2224 15.8982L49.2896 15.9406L49.3585 15.9847C49.5918 16.134 49.8707 16.1952 50.1452 16.1573C50.4196 16.1195 50.6715 15.9851 50.8555 15.7782C51.0635 15.5449 51.1708 15.2391 51.1543 14.9272C51.1378 14.6153 50.9986 14.3225 50.7672 14.1124L50.5727 13.9359L50.5073 13.8759L50.4402 13.8159C50.31 13.6982 50.1555 13.6104 49.9877 13.5588C49.8198 13.5072 49.6427 13.493 49.4687 13.5172C49.2948 13.5415 49.1283 13.6035 48.981 13.6991C48.8337 13.7946 48.7091 13.9212 48.6162 14.07C48.4442 14.3419 48.3867 14.6705 48.4562 14.9845C48.5257 15.2985 48.7149 15.5724 48.9856 15.7465ZM51.9548 17.91L52.0167 17.9629L52.0803 18.0177C52.2347 18.1496 52.4312 18.2222 52.6344 18.2222C52.8376 18.2222 53.0341 18.1496 53.1885 18.0177C53.363 17.8694 53.4719 17.6585 53.4917 17.4306C53.5116 17.2027 53.4407 16.9761 53.2945 16.8L53.1708 16.65L53.1125 16.5794L53.0559 16.5124C52.973 16.4124 52.8691 16.332 52.7514 16.2768C52.6338 16.2216 52.5055 16.193 52.3755 16.193C52.2455 16.193 52.1172 16.2216 51.9996 16.2768C51.8819 16.332 51.778 16.4124 51.695 16.5124C51.543 16.6947 51.469 16.9294 51.4888 17.1658C51.5087 17.4022 51.6208 17.6214 51.8011 17.7759L51.9548 17.91ZM16.391 27.6159L16.4246 27.6935L16.49 27.8471C16.6173 28.1647 16.9584 28.35 17.303 28.2741C17.4894 28.2319 17.6515 28.118 17.7541 27.957C17.8568 27.7961 17.8915 27.6012 17.8509 27.4147L17.8368 27.3388L17.8191 27.2612L17.7802 27.0759C17.7572 26.9686 17.7109 26.8676 17.6445 26.7802C17.578 26.6927 17.4931 26.621 17.3958 26.5699C17.2985 26.5189 17.1911 26.4899 17.0813 26.4849C16.9715 26.4799 16.862 26.4992 16.7604 26.5412C16.5762 26.6195 16.4303 26.7672 16.3546 26.9522C16.2788 27.1372 16.2792 27.3447 16.3557 27.5294L16.391 27.6141V27.6159ZM17.4833 24.0582V23.9824L17.4815 23.9047V23.6329C17.4795 23.4746 17.4431 23.3186 17.3748 23.1757C17.3065 23.0328 17.208 22.9063 17.086 22.8052C16.964 22.704 16.8214 22.6305 16.6682 22.5897C16.5149 22.5488 16.3547 22.5417 16.1984 22.5688C15.9146 22.6236 15.664 22.7884 15.5017 23.0272C15.3394 23.266 15.2785 23.5594 15.3324 23.8429L15.35 23.9329L15.3642 24.0194L15.4084 24.2559C15.4529 24.4969 15.5805 24.7148 15.769 24.8717C15.9575 25.0287 16.1951 25.1148 16.4405 25.1153C17.0167 25.1153 17.4833 24.6424 17.4833 24.0582ZM15.3341 19.9412L15.3235 20.0312L15.3129 20.1177L15.2953 20.2977C15.243 20.6307 15.3253 20.9708 15.5242 21.2431C15.7231 21.5155 16.0222 21.6978 16.3557 21.75C16.6892 21.8022 17.0298 21.72 17.3026 21.5214C17.5754 21.3228 17.758 21.0242 17.8103 20.6912L17.8226 20.6188L17.8403 20.5429L17.8792 20.3435C17.9154 20.1674 17.9147 19.9857 17.877 19.81C17.8392 19.6342 17.7654 19.4681 17.66 19.3223C17.5547 19.1765 17.4202 19.0541 17.265 18.9629C17.1099 18.8717 16.9375 18.8136 16.7587 18.7924C16.5895 18.774 16.4184 18.7892 16.2552 18.8371C16.0919 18.8849 15.9397 18.9645 15.8074 19.0713C15.675 19.178 15.5651 19.3098 15.4838 19.4591C15.4026 19.6084 15.3518 19.7722 15.3341 19.9412ZM18.8 17.4441L18.8283 17.3753L18.8583 17.3047L18.9043 17.1953L18.9078 17.1847C19.0512 16.8291 19.0483 16.4313 18.8997 16.0777C18.7511 15.7242 18.4689 15.4435 18.1143 15.2965C17.9388 15.2252 17.7509 15.1895 17.5615 15.1912C17.3721 15.193 17.1849 15.2323 17.0109 15.3068C16.8368 15.3813 16.6792 15.4896 16.5473 15.6254C16.4155 15.7611 16.3119 15.9216 16.2426 16.0977L16.209 16.1824L16.1772 16.2618L16.1436 16.3429C15.852 17.0735 16.1966 17.9118 16.9213 18.2188C17.0956 18.2919 17.2827 18.3297 17.4717 18.3302C17.6608 18.3306 17.848 18.2937 18.0227 18.2215C18.1974 18.1493 18.356 18.0433 18.4894 17.9096C18.6228 17.7758 18.7284 17.617 18.8 17.4424V17.4441ZM18.3582 14.8465C18.519 14.9533 18.6994 15.0272 18.889 15.0639C19.0786 15.1005 19.2737 15.0992 19.4627 15.0599C19.6518 15.0207 19.8313 14.9443 19.9905 14.8353C20.1498 14.7262 20.2859 14.5867 20.3907 14.4247L20.4313 14.3612L20.4755 14.2959L20.5409 14.1971C20.7546 13.866 20.8281 13.4639 20.7452 13.0788C20.6624 12.6938 20.43 12.3572 20.0991 12.1429C19.9366 12.0382 19.755 11.9667 19.5647 11.9326C19.3743 11.8985 19.1791 11.9025 18.9903 11.9444C18.8016 11.9862 18.623 12.0651 18.465 12.1765C18.3071 12.2878 18.1728 12.4294 18.0701 12.5929L18.0224 12.6688L17.9764 12.7412L17.9287 12.8153C17.7217 13.1433 17.6509 13.539 17.7314 13.9183C17.8119 14.2976 18.0357 14.6306 18.3582 14.8465ZM20.3907 11.7829C20.5329 11.9192 20.7009 12.0259 20.8848 12.0967C21.0687 12.1676 21.2649 12.2012 21.462 12.1956C21.659 12.19 21.853 12.1453 22.0326 12.0642C22.2121 11.983 22.3738 11.8671 22.508 11.7229L22.5611 11.6665L22.6141 11.61L22.6954 11.5218C22.7007 11.52 22.7025 11.5165 22.7042 11.5147C22.9738 11.2181 23.1157 10.8274 23.0992 10.4272C23.0826 10.027 22.909 9.64933 22.6159 9.37589C22.4712 9.24171 22.3012 9.13756 22.1159 9.06947C21.9305 9.00139 21.7335 8.97072 21.5362 8.97926C21.3389 8.9878 21.1453 9.03536 20.9665 9.1192C20.7878 9.20304 20.6275 9.32148 20.495 9.46765L20.4349 9.53471L20.3766 9.60001L20.3147 9.66706C20.0482 9.96021 19.9071 10.3457 19.9213 10.7413C19.9355 11.1369 20.1039 11.5096 20.3907 11.7829ZM25.069 9.60177L25.1592 9.54001L25.2246 9.49765L25.2882 9.45354C25.6169 9.23158 25.8444 8.88892 25.9212 8.5002C25.998 8.11148 25.9179 7.70821 25.6982 7.37824C25.5914 7.21455 25.4531 7.07367 25.2913 6.96378C25.1295 6.85389 24.9475 6.77719 24.7558 6.73811C24.564 6.69904 24.3664 6.69838 24.1745 6.73617C23.9825 6.77396 23.7999 6.84944 23.6374 6.95824L23.5632 7.00765L23.489 7.05883L23.4183 7.10648L23.4112 7.11001C23.083 7.33411 22.8563 7.67824 22.7802 8.06794C22.7041 8.45764 22.7848 8.86157 23.0047 9.19236C23.1127 9.35532 23.2519 9.49531 23.4144 9.60421C23.5769 9.71312 23.7594 9.7888 23.9514 9.82687C24.1433 9.86493 24.3409 9.86464 24.5327 9.82601C24.7246 9.78737 24.9069 9.71116 25.069 9.60177ZM28.0383 7.88471L28.1337 7.83883L28.2044 7.8053L28.2451 7.78589C28.6016 7.62091 28.8781 7.32152 29.0139 6.95335C29.1497 6.58518 29.1338 6.17826 28.9697 5.82177C28.891 5.6449 28.7779 5.48536 28.637 5.35238C28.4962 5.21939 28.3303 5.11561 28.149 5.04702C27.9678 4.97842 27.7747 4.94639 27.5809 4.95276C27.3872 4.95913 27.1966 5.00377 27.0202 5.08412L26.9354 5.12295L26.8877 5.14412L26.8099 5.17942L26.8046 5.18295C26.4479 5.34971 26.1716 5.65041 26.0359 6.0196C25.9002 6.38878 25.916 6.79655 26.08 7.15412C26.1593 7.33126 26.2732 7.49089 26.4148 7.62373C26.5565 7.75658 26.7232 7.85999 26.9052 7.92797C27.0873 7.99594 27.281 8.02712 27.4752 8.0197C27.6694 8.01227 27.8602 7.96639 28.0365 7.88471H28.0383ZM31.1348 6.68471L31.3292 6.62824L31.4052 6.60706L31.483 6.58412C31.8101 6.48691 32.0893 6.27136 32.2658 5.97961C32.4423 5.68786 32.5034 5.34087 32.4374 5.00648C32.4033 4.832 32.3351 4.66594 32.2367 4.51781C32.1383 4.36968 32.0116 4.24239 31.8638 4.14322C31.7161 4.04405 31.5502 3.97495 31.3756 3.93988C31.2011 3.90481 31.0214 3.90445 30.8467 3.93883L30.6664 3.97412L30.5763 3.99353L30.4897 4.01118L30.3836 4.03589C30.0342 4.1391 29.7397 4.37595 29.5643 4.69487C29.3888 5.0138 29.3466 5.389 29.4469 5.73883C29.4954 5.91164 29.5776 6.07321 29.6887 6.21429C29.7999 6.35537 29.9377 6.4732 30.0945 6.56105C30.2513 6.64889 30.4238 6.70503 30.6023 6.72625C30.7808 6.74747 30.9617 6.73335 31.1348 6.68471ZM34.3868 5.95059L34.6643 5.9153L34.7438 5.90471L34.8251 5.89236C35.1007 5.85445 35.354 5.72015 35.5397 5.51334C35.7255 5.30654 35.8318 5.04064 35.8396 4.76295C35.8511 4.45207 35.7387 4.14933 35.527 3.92108C35.3153 3.69283 35.0216 3.5577 34.7102 3.5453L34.4504 3.53471L34.3585 3.53295L34.2702 3.52942C34.094 3.52476 33.919 3.55837 33.7572 3.62791C33.5954 3.69746 33.4507 3.80128 33.333 3.93219C33.2153 4.0631 33.1275 4.21798 33.0757 4.3861C33.0239 4.55422 33.0093 4.73158 33.033 4.90589C33.1196 5.57118 33.7276 6.03883 34.3868 5.95059ZM37.835 5.68589H38.2062C38.618 5.68589 38.9838 5.39118 39.0545 4.96942C39.0947 4.74436 39.044 4.51257 38.9135 4.32474C38.7831 4.1369 38.5834 4.0083 38.3582 3.96706L38.1691 3.93354L38.0807 3.91765L37.9923 3.90177C37.8641 3.88022 37.7327 3.88684 37.6074 3.92117C37.482 3.95549 37.3656 4.0167 37.2663 4.10053C37.1671 4.18436 37.0873 4.28879 37.0326 4.40654C36.9779 4.5243 36.9495 4.65255 36.9495 4.78236C36.946 5.27648 37.3437 5.68412 37.835 5.68589ZM77.0768 23.5412V47.1971H72.4639V15.8824H79.9188L86.3981 38.9524L92.9676 15.8824H100.283V47.1988H94.9718V23.5412L88.3546 47.1971H83.6957L77.0768 23.5412ZM115.08 47.6471C107.992 47.6471 103.989 43.8177 103.989 35.9329C103.989 29.0859 107.204 24.0794 113.957 24.0794C119.505 24.0794 123.093 27.0565 123.093 34.9412V37.7788H109.721C109.951 41.5659 111.488 43.4135 115.544 43.4135C118.245 43.4135 121.137 42.4218 122.86 41.2924V45.6653C121.227 46.7471 118.62 47.6471 115.08 47.6471ZM109.721 33.8118H117.451V33.3618C117.451 30.5259 116.614 28.3147 113.864 28.3147C111.213 28.3165 109.86 30.2082 109.721 33.8118ZM127.877 24.5329V19.5759H133.422V24.5347H139.245V28.7647H133.422V40.4365C133.422 42.1024 134.491 43.4118 136.824 43.4118C138.687 43.4118 139.71 42.6918 139.71 42.6918V47.0594C139.71 47.0594 138.174 47.6435 135.472 47.6435C130.347 47.6435 127.876 44.6259 127.876 40.3906V28.7647H124.938V24.5329H127.877ZM151.957 47.6471C144.869 47.6471 140.864 43.8177 140.864 35.9329C140.864 29.0859 144.079 24.0794 150.833 24.0794C156.38 24.0794 159.968 27.0565 159.968 34.9412V37.7788H146.596C146.826 41.5659 148.363 43.4135 152.42 43.4135C155.12 43.4135 158.012 42.4218 159.735 41.2924V45.6653C158.104 46.7471 155.495 47.6471 151.957 47.6471ZM146.596 33.8118H154.328V33.3618C154.328 30.5259 153.491 28.3147 150.741 28.3147C148.088 28.3165 146.736 30.2082 146.596 33.8118ZM176.495 24.5329H182.043V47.1971H176.635L176.494 45.3053H176.214C175.097 46.3871 173.139 47.5571 169.834 47.5571C165.309 47.5571 163.447 45.5771 163.447 41.0682V24.5329H168.991V40.53C168.991 42.24 169.878 43.05 171.836 43.05C173.842 43.05 175.47 42.0159 176.495 40.7982V24.5329ZM192.231 47.1971H186.683V24.5329H192.091L192.231 26.4247H192.508C193.625 25.3447 195.117 24.1729 198.429 24.1729C201.455 24.1729 203.318 25.0729 204.205 27.0565C205.511 25.5212 207.655 24.1729 211.243 24.1729C215.76 24.1729 217.391 26.1547 217.391 30.6618V47.1971H211.847V31.2C211.847 29.4865 211.195 28.6765 209.238 28.6765C207.234 28.6765 205.836 29.7159 204.809 30.9282V47.1988H199.265V31.2C199.265 29.4865 198.613 28.6765 196.656 28.6765C194.652 28.6765 193.252 29.7159 192.231 30.9282V47.1971Z" fill="black"/>
</g>
<defs>
<clipPath id="clip0_301_88">
<rect width="217.391" height="60" fill="white"/>
</clipPath>
</defs>
</svg>
