<svg width="64" height="65" viewBox="0 0 64 65" fill="none" xmlns="http://www.w3.org/2000/svg">
<path d="M62.8503 61.8073H61.3174V25.8032C61.3174 25.1329 60.8383 24.6541 60.1677 24.6541H52.1198C51.4491 24.6541 50.9701 25.1329 50.9701 25.8032V61.8073H46.3713V33.8467C46.3713 33.1764 45.8922 32.6976 45.2216 32.6976H37.1737C36.503 32.6976 36.0239 33.1764 36.0239 33.8467V61.8073H31.4252V41.7944C31.4252 41.1241 30.9461 40.6453 30.2754 40.6453H22.4192C21.7485 40.6453 21.2695 41.1241 21.2695 41.7944V61.8073H16.6707V49.8379C16.6707 49.1676 16.1916 48.6888 15.521 48.6888H7.47305C6.80239 48.6888 6.32335 49.1676 6.32335 49.8379V61.8073H2.2994V1.28969C2.2994 0.619403 1.82036 0.140625 1.1497 0.140625C0.479041 0.140625 0 0.619403 0 1.28969V62.9564C0 63.6267 0.479041 64.1055 1.1497 64.1055H7.56886H15.6168H22.4192H30.4671H37.3653H45.4132H52.1198H60.1677H62.8503C63.521 64.1055 64 63.6267 64 62.9564C64 62.2861 63.521 61.8073 62.8503 61.8073ZM8.71856 61.8073V50.9869H14.4671V61.8073H8.71856ZM23.5689 61.8073V42.9435H29.3174V61.8073H23.5689ZM38.4192 61.8073V34.9957H44.1677V61.8073H38.4192ZM53.2695 61.8073V26.9522H59.018V61.8073H53.2695Z" fill="black"/>
<path d="M43.0179 10.4823C43.6885 10.4823 44.1676 10.0035 44.1676 9.33318C44.1676 8.66289 44.455 7.9926 44.934 7.51382C45.4131 7.03504 46.0837 6.74778 46.7544 6.74778C48.0957 6.74778 49.2454 7.89685 49.2454 9.23743C49.2454 10.195 48.6706 11.1525 47.8083 11.5356C46.3712 12.2059 45.5089 13.6422 45.5089 15.0785V16.4191C45.5089 17.0894 45.9879 17.5682 46.6586 17.5682C47.3292 17.5682 47.8083 17.0894 47.8083 16.4191V15.0785C47.8083 14.4082 48.1915 13.8337 48.8622 13.5464C50.4909 12.6846 51.5448 10.961 51.5448 9.14167C51.5448 6.55626 49.3412 4.35388 46.7544 4.35388C45.4131 4.35388 44.1676 4.83266 43.3053 5.79022C42.3472 6.74778 41.8682 7.89685 41.8682 9.23743C41.8682 10.0035 42.443 10.4823 43.0179 10.4823Z" fill="black"/>
<path d="M46.7544 24.1753C47.8656 24.1753 48.7664 23.275 48.7664 22.1644C48.7664 21.0539 47.8656 20.1536 46.7544 20.1536C45.6432 20.1536 44.7424 21.0539 44.7424 22.1644C44.7424 23.275 45.6432 24.1753 46.7544 24.1753Z" fill="black"/>
</svg>
