<svg width="40" height="40" viewBox="0 0 40 40" fill="none" xmlns="http://www.w3.org/2000/svg">
<path d="M31.8945 14.3685C33.0664 13.4896 34.1211 12.4349 34.9414 11.2044C33.8867 11.6732 32.6562 12.0247 31.4258 12.1419C32.7148 11.3802 33.6523 10.2083 34.1211 8.74349C32.9492 9.44661 31.6016 9.97396 30.2539 10.2669C29.082 9.03646 27.5 8.33333 25.7422 8.33333C22.3438 8.33333 19.5898 11.0872 19.5898 14.4857C19.5898 14.9544 19.6484 15.4232 19.7656 15.8919C14.668 15.599 10.0977 13.138 7.05078 9.44661C6.52344 10.3255 6.23047 11.3802 6.23047 12.5521C6.23047 14.6615 7.28516 16.5365 8.98438 17.6497C7.98828 17.5911 6.99219 17.3568 6.17188 16.888V16.9466C6.17188 19.9349 8.28125 22.3958 11.0938 22.9818C10.625 23.099 10.0391 23.2161 9.51172 23.2161C9.10156 23.2161 8.75 23.1576 8.33984 23.099C9.10156 25.5599 11.3867 27.3177 14.082 27.3763C11.9727 29.0169 9.33594 30.013 6.46484 30.013C5.9375 30.013 5.46875 29.9544 5 29.8958C7.69531 31.6536 10.918 32.6497 14.4336 32.6497C25.7422 32.6497 31.8945 23.3333 31.8945 15.1888C31.8945 14.8958 31.8945 14.6615 31.8945 14.3685Z" fill="#0C0C0C"/>
</svg>
